<?xml version="1.0" encoding="UTF-8" standalone="no"?>
<!-- Created with Inkscape (http://www.inkscape.org/) -->

<svg
   xmlns:dc="http://purl.org/dc/elements/1.1/"
   xmlns:cc="http://creativecommons.org/ns#"
   xmlns:rdf="http://www.w3.org/1999/02/22-rdf-syntax-ns#"
   xmlns:svg="http://www.w3.org/2000/svg"
   xmlns="http://www.w3.org/2000/svg"
   xmlns:sodipodi="http://sodipodi.sourceforge.net/DTD/sodipodi-0.dtd"
   xmlns:inkscape="http://www.inkscape.org/namespaces/inkscape"
   id="svg2"
   sodipodi:docname="Little-Miss-Muffet-1940-poster-isolated.svg"
   viewBox="0 0 945.17169 1218.8645"
   version="1.1"
   inkscape:version="0.91 r13725"
   width="945.17169"
   height="1218.8645">
  <title
     id="title4254">Little Miss Muffet</title>
  <defs
     id="defs6">
    <linearGradient
       id="linearGradient4219"
       y2="365.69"
       gradientUnits="userSpaceOnUse"
       x2="351.26999"
       y1="365.69"
       x1="269.25"
       inkscape:collect="always">
      <stop
         id="stop4215"
         style="stop-color:#ffffff"
         offset="0" />
      <stop
         id="stop4221"
         style="stop-color:#ffffff"
         offset=".69863" />
      <stop
         id="stop4217"
         style="stop-color:#ffffff;stop-opacity:.49804"
         offset="1" />
    </linearGradient>
    <linearGradient
       id="linearGradient4231"
       y2="740.15997"
       gradientUnits="userSpaceOnUse"
       x2="352.73001"
       y1="798.69"
       x1="382.78"
       inkscape:collect="always">
      <stop
         id="stop4227"
         style="stop-color:#ffffff"
         offset="0" />
      <stop
         id="stop4233"
         style="stop-color:#ffffff;stop-opacity:.78431"
         offset="0.7" />
      <stop
         id="stop4229"
         style="stop-color:#ffffff;stop-opacity:.49804"
         offset="1" />
    </linearGradient>
    <linearGradient
       id="linearGradient4241"
       y2="762.20001"
       gradientUnits="userSpaceOnUse"
       x2="769.32001"
       y1="786.17999"
       x1="755.91998"
       inkscape:collect="always">
      <stop
         id="stop4237"
         style="stop-color:#ffffff"
         offset="0" />
      <stop
         id="stop4243"
         style="stop-color:#ffffff"
         offset=".5" />
      <stop
         id="stop4239"
         style="stop-color:#ffffff;stop-opacity:.49804"
         offset="1" />
    </linearGradient>
    <linearGradient
       id="linearGradient4251"
       y2="907.16998"
       gradientUnits="userSpaceOnUse"
       x2="724.19"
       y1="929.73999"
       x1="683.28998"
       inkscape:collect="always">
      <stop
         id="stop4247"
         style="stop-color:#ffffff"
         offset="0" />
      <stop
         id="stop4253"
         style="stop-color:#ffffff"
         offset=".5" />
      <stop
         id="stop4249"
         style="stop-color:#ffffff;stop-opacity:.49804"
         offset="1" />
    </linearGradient>
    <linearGradient
       id="linearGradient4261"
       y2="997.5"
       gradientUnits="userSpaceOnUse"
       x2="675.48999"
       y1="996.78998"
       x1="611.35999"
       inkscape:collect="always">
      <stop
         id="stop4257"
         style="stop-color:#ffffff"
         offset="0" />
      <stop
         id="stop4263"
         style="stop-color:#ffffff"
         offset="0.8" />
      <stop
         id="stop4259"
         style="stop-color:#ffffff;stop-opacity:.49804"
         offset="1" />
    </linearGradient>
  </defs>
  <sodipodi:namedview
     id="namedview4"
     bordercolor="#666666"
     inkscape:pageshadow="2"
     guidetolerance="10"
     pagecolor="#ffffff"
     gridtolerance="10"
     inkscape:window-maximized="1"
     inkscape:zoom="0.40850585"
     objecttolerance="10"
     borderopacity="1"
     inkscape:current-layer="svg2"
     inkscape:cx="904.37415"
     inkscape:cy="456.36675"
     inkscape:window-y="1"
     inkscape:window-x="4"
     inkscape:window-width="1916"
     showgrid="false"
     inkscape:pageopacity="0"
     inkscape:window-height="1035"
     fit-margin-top="0"
     fit-margin-left="0"
     fit-margin-right="0"
     fit-margin-bottom="0" />
  <g
     id="background"
     transform="translate(-161.80813,-264.19645)" />
  <g
     id="g20482"
     transform="translate(-147.12045,0.18164601)">
    <path
       inkscape:connector-curvature="0"
       style="fill:#7fbdc9;fill-opacity:1"
       sodipodi:nodetypes="ccccc"
       d="m 434.29,289.53 626.26,-6.9806 c 0,0 4.61,522.71 5.4848,709.03 -205.11,3.4281 -402.02,8.6177 -630.85,7.0296 4.4667,-326.03 3.1134,-406.31 -0.89546,-709.08 z"
       id="rectangle" />
    <path
       d="m 698.56,560.02 15.457,-10.471 2.7424,5.7341 -7.4792,6.9806 1.2465,1.9944 4.7368,-0.74792 -3.241,4.9862 4.9861,0.2493 -4.2382,5.4848 1.9945,1.7452 3.7396,-3.7396 2.7424,1.2465 -2.7424,4.4875 4.4875,0.2493 -6.9806,5.9834 3.4903,4.9862 -4.9861,4.2382 z"
       inkscape:connector-curvature="0"
       style="fill:#ffffff"
       id="shadow 1" />
    <path
       d="m 716.01,596.67 6.9806,-5.2354 6.9806,-3.241 8.7258,4.7368 -2.4931,6.482 4.2382,0.99723 -1.4958,3.4903 -5.9834,-4.2382 -0.49862,1.4958 4.2382,3.4903 -4.9861,1.7452 2.4931,2.2438 4.7368,0 0,4.9862 -3.9889,0.2493 -0.2493,2.7424 2.9917,0.24931 -3.241,5.2354 -5.2354,1.2465 5.9834,3.4903 2.7424,-0.74792 2.9917,2.2438 2.9917,-1.7452 2.7424,2.4931 -6.2327,1.2465 0.49862,6.482 -18.947,-9.723 z"
       inkscape:connector-curvature="0"
       style="fill:#ffffff"
       id="shadow 2" />
    <path
       d="m 623.63,948.49 c -12.279,14.37 7.8433,8.6511 -25.1,50.846 l 50.671,-0.27741 c 0,0 0.8781,-1.7462 3.1899,-1.8816 4.3299,-0.25347 7.1638,-0.021 11.428,-1.8698 5.8016,-2.5151 9.3196,-3.8486 9.3307,-6.1095 0.009,-1.7796 -3.1431,-1.1292 -5.1514,-0.194 -2.8471,1.3259 -4.5854,2.8331 -7.1459,3.556 -3.6169,1.0211 -7.1595,0.77241 -11.231,0.99723 -0.71379,0.0394 -1.0671,-2.1378 -0.35257,-2.1154 3.1128,0.0974 6.3536,0.0641 9.3432,-0.17628 0.89408,-0.0719 1.4918,-2.4775 -1.4103,-2.2917 -1.4661,0.0938 -2.243,-0.063 -4.4072,0 -0.76739,0.0223 -1.2313,-1.7945 1.3498,-1.8661 4.8535,-0.13464 7.9065,-0.2061 12.401,-0.95446 0.90728,-0.15108 -0.31448,-2.4891 -1.234,-2.468 -4.6366,0.10607 -7.9963,-0.42079 -12.34,0.17629 -1.2497,0.17177 -0.71299,-1.6993 0.54139,-1.8145 3.9915,-0.36661 5.944,0.0954 9.507,-0.30094 1.8123,-0.2016 1.4237,-2.559 0.52886,-2.6443 -4.3,-0.40983 -9.0454,0.54206 -13.75,0.17629 -0.83882,-0.0652 -0.4966,-1.803 1.7149,-2.0941 6.2151,-0.81793 14.84,0.0247 10.978,-0.37396 -0.60316,-0.0623 2.3913,-2.0463 0,-1.9392 -1.5364,0.0689 -3.7084,0.1662 -5.9938,0 -0.64468,-0.0469 -0.6429,-1.8721 0,-1.9392 4.5151,-0.47087 7.8968,-0.87892 11.841,-1.3498 2.5183,-0.30061 4.3364,-0.73223 7.5501,-0.94193 0.99856,-0.0652 0.38834,-1.997 -1.9392,-2.2917 -1.4092,-0.17842 -2.7094,0.88164 -4.1062,1.1396 -3.8538,0.71165 -7.7271,0.15116 -11.704,1.1094 -1.0557,0.25434 -3.1522,0.46532 -3.1982,-0.6196 -0.0735,-1.7338 3.2061,-1.3946 5.009,-1.4192 3.0839,-0.042 6.0362,-0.36544 8.7111,-1.2679 6.275,-2.1171 2.5097,-4.3015 1.0577,-4.2309 -2.317,0.11263 -4.738,1.2439 -7.1636,1.5136 -1.8319,0.20365 -2.7983,-0.51562 -5.529,0.073 -1.7613,0.37967 -0.69676,-1.6799 0.52,-1.8875 4.319,-0.73681 1.4655,-3.0762 0.36144,-2.9666 -1.6048,0.15925 -2.9843,-1.9324 -0.70515,-2.021 2.0196,-0.0786 4.5585,0.60592 4.9788,-1.0363 0.40677,-1.5895 -0.75285,-2.6646 -3.7448,-3.1946 -0.81213,-0.14385 -0.64324,-2.3751 0.17628,-2.468 3.4179,-0.38743 4.8602,-0.34736 7.2278,-0.88143 3.0484,-0.68765 4.1171,-3.544 -0.17628,-3.1732 -3.9538,0.34155 -4.2828,-2.6703 -1.501,-2.7476 1.0383,-0.0288 4.8569,-0.29576 1.8355,-3.5458 -1.2492,-1.3437 1.0773,-3.2785 2.6722,-3.9115 3.9835,-1.581 3.2379,-4.6133 0.93746,-4.7506 -1.688,-0.10077 -1.4472,-2.2891 -0.18638,-5.3201 2.1402,-5.1447 2.6586,-9.9987 5.8004,-9.8641 2.9022,0.12426 1.5536,-2.7966 -0.27855,-4.649 -30.836,20.794 -37.708,20.339 -51.313,36.262 z"
       inkscape:connector-curvature="0"
       style="fill:url(#linearGradient4261)"
       sodipodi:nodetypes="accssssassssssssssssssssssassasasssassssassssssssssca"
       id="shadow 3" />
    <g
       id="lower leg">
      <path
         inkscape:connector-curvature="0"
         style="fill:#d1703b"
         sodipodi:nodetypes="cccccc"
         d="m 799.28,917.04 c -17.301,-52.211 -37.46,-110.5 -54.649,-155.13 -15.64,0.95202 -50.065,5.6412 -50.065,5.6412 l -15.866,141.38 34.552,89.554 c 26.964,-18.949 69.741,-51.649 86.028,-81.445 z"
         id="lower leg skin" />
      <path
         inkscape:connector-curvature="0"
         style="fill:url(#linearGradient4251)"
         sodipodi:nodetypes="caccccccccccccccccccccccccccccccccccccccccccccccccccccccccccccccccccccccccccccccccccccccccccccccccccccccccccccccccccccccccccccccccccccccccccc"
         d="m 677.65,909.29 c 0,0 9.5904,32.463 15.513,48.303 5.3291,14.252 17.981,41.956 17.981,41.956 l 26.09,-15.161 2.468,-7.0515 -8.4618,3.5257 3.1732,-5.6412 -14.103,7.0515 -2.1154,-2.468 15.161,-6.6989 -7.404,-1.0577 -11.282,3.5257 8.1092,-7.404 3.5257,-0.70515 -1.4103,-2.8206 -4.2309,0.35258 -5.9938,3.8783 4.2309,-7.0515 3.8783,0 0.70515,-2.8206 -5.9938,-1.4103 -4.5835,2.8206 1.4103,-8.4618 9.872,-2.468 -6.3463,-3.8783 -8.4618,5.6412 0,-2.1154 7.404,-5.2886 -7.404,2.8206 -3.8783,-0.35257 9.5195,-5.2886 4.5835,0.70514 -2.468,-2.8206 -7.7566,2.8206 6.3463,-7.404 -9.8721,2.1154 10.577,-6.6989 -10.577,-2.1154 13.75,-6.6989 0,-3.5257 -7.7566,4.2309 -9.8721,1.4103 16.924,-7.7566 -9.5195,1.7629 -6.6989,2.1154 -6.3463,0.70515 3.1732,2.8206 -5.9938,1.4103 0.35257,-5.9938 9.1669,-2.1154 12.693,-2.1154 4.2309,-2.1154 -0.35257,-2.1154 -8.4618,3.1732 -7.0515,-1.7629 5.9938,-4.2309 4.936,0 4.936,-4.936 -14.456,1.0577 2.8206,-2.8206 9.5195,-1.0577 -11.988,-2.8206 -0.70515,-8.4618 2.468,0.35258 1.0577,4.936 6.6989,0.35257 -6.3463,-4.2309 5.6412,-3.8783 -7.0515,-0.70515 -11.282,3.8783 10.577,-6.3463 6.3463,-0.35258 0,-1.7629 -9.1669,-1.4103 -7.404,3.5257 -0.35257,-2.1154 8.4618,-3.8783 9.1669,0.35257 5.6412,-1.7629 -0.35257,-2.8206 -9.1669,3.5257 -14.456,0.70515 13.398,-2.8206 10.577,-4.2309 -4.2309,-1.0577 -10.577,3.8783 -7.7566,1.0577 5.6412,-3.1732 14.456,-3.8783 2.1154,-1.7629 -13.045,3.8783 3.5257,-4.2309 -11.635,4.936 13.045,-9.1669 2.468,3.8783 5.2886,-3.1732 -5.9938,-0.35257 3.1732,-3.1732 -4.5834,0 -4.5835,3.5257 -7.0515,2.1154 3.1732,-3.8783 9.8721,-5.9938 3.1732,-0.35257 -2.468,-1.7629 -11.282,3.1732 1.0577,-2.8206 4.2309,-1.0577 3.5257,-2.468 7.0515,-2.1154 -7.0515,-2.1154 -6.3463,-0.70515 1.0577,-2.8206 5.6412,0.70515 5.9938,-3.1732 -5.2886,-1.4103 5.6412,-2.1154 -4.936,-1.0577 5.2886,-5.6412 -0.70514,-1.7629 -9.1669,0.35257 1.7629,-4.936 2.468,2.1154 4.936,-0.35257 0.70514,-4.2309 -6.6989,0.70514 8.1092,-3.5257 3.1732,-3.8783 -8.1092,2.1154 3.8783,-5.2886 -3.8783,-2.1154 1.4103,-3.5257 -3.5257,-1.7629 -7.0515,27.148 6.3463,1.4103 -7.0515,1.4103 -0.70515,3.5257 6.6989,0 -0.70515,3.1732 -7.404,0 z"
         id="lower leg white" />
      <path
         d="m 710.44,994.61 c 0,0 23.834,-13.191 34.552,-21.507 11.69,-9.0699 22.363,-19.52 32.084,-30.674 7.9085,-9.0736 21.154,-29.264 21.154,-29.264 l 107.89,291.58 c 0,0 -28.785,-5.5113 -41.251,-12.693 -16.79,-9.6727 -30.022,-24.8 -42.661,-39.488 -24.398,-28.353 -48.197,-53.92 -68.752,-83.56 -16.324,-23.538 -43.014,-74.393 -43.014,-74.393 z"
         inkscape:connector-curvature="0"
         style="fill:#e8c10c"
         sodipodi:nodetypes="caaccasac"
         id="lower leg sock" />
      <path
         d="m 719.25,1011 c 0,0 20.167,-9.129 29.264,-15.337 14.141,-9.6504 27.264,-21.006 38.783,-33.671 7.4826,-8.227 19.392,-27.148 19.392,-27.148 l 6.5226,18.334 c 0,0 -10.331,14.272 -16.218,20.802 -8.4598,9.3835 -17.445,18.392 -27.324,26.267 -8.2967,6.6136 -17.008,12.959 -26.619,17.452 -5.5067,2.5742 -17.452,5.2886 -17.452,5.2886 z"
         inkscape:connector-curvature="0"
         style="fill:#ba2a0c;stroke:#ba2a0c;stroke-width:1px"
         sodipodi:nodetypes="caaccaaacc"
         id="lower leg band" />
      <path
         d="m 716.08,1002.9 c 0,0 6.8451,0.1406 10.048,-0.8814 1.8819,-0.6004 3.8426,-1.4837 5.1123,-2.9969 1.4102,-1.6807 0.60599,-4.7658 2.2917,-6.17 3.3923,-2.8257 9.1284,-0.25435 13.045,-2.2917 1.6957,-0.88203 3.0554,-2.4252 4.0546,-4.0546 1.3891,-2.2653 0.74543,-5.557 2.468,-7.5803 1.4992,-1.761 4.0415,-2.2688 6.17,-3.1732 2.5141,-1.0682 5.717,-0.82716 7.7566,-2.6443 2.9634,-2.6402 2.238,-8.0166 5.1123,-10.753 2.7662,-2.6339 7.9324,-1.6514 10.577,-4.4072 2.8193,-2.9376 1.4798,-8.457 4.2309,-11.459 2.3267,-2.5386 6.8689,-2.0123 9.3432,-4.4072 1.945,-1.8826 1.4925,-5.664 3.702,-7.2278 1.7909,-1.2674 6.5226,-0.88143 6.5226,-0.88143"
         inkscape:connector-curvature="0"
         style="fill:none;stroke:#ba2a0c;stroke-width:3;stroke-linecap:round"
         sodipodi:nodetypes="caaaaaaaaaaaaac"
         id="lower leg sock fringe 1" />
      <path
         d="m 730.36,1030.6 c 0,0 6.0212,1.3788 8.638,0.1763 2.3518,-1.0807 2.6386,-4.8017 4.936,-5.9937 2.7723,-1.4384 6.5639,0.7197 9.3432,-0.7052 1.7073,-0.8753 2.6488,-2.8036 3.702,-4.4072 1.2263,-1.867 1.1798,-4.6945 2.9969,-5.9937 3.5694,-2.5522 9.4147,0.7015 13.045,-1.7629 3.5701,-2.4234 2.8905,-8.6985 6.3463,-11.282 2.9454,-2.2022 8.1131,0.092 10.753,-2.468 2.6606,-2.5796 0.44312,-7.9109 2.8206,-10.753 2.8674,-3.4284 9.6402,-1.9524 12.164,-5.6412 2.0945,-3.0616 -1.8083,-8.3779 0.70515,-11.106 1.6498,-1.7908 5.0931,0.11364 7.2278,-1.0577 1.4975,-0.82174 2.6928,-2.3014 3.3494,-3.8783 0.58904,-1.4146 0.35257,-4.5835 0.35257,-4.5835"
         inkscape:connector-curvature="0"
         style="fill:none;stroke:#ba2a0c;stroke-width:3;stroke-linecap:round"
         sodipodi:nodetypes="caaaaaaaaaaaaac"
         id="lower leg sock fringe 2" />
      <path
         d="m 862.57,1190.3 c 0,0 10.096,-9.0345 15.601,-12.957 4.4773,-3.1899 8.5897,-5.9709 14.103,-8.5499 0.74138,-0.3469 1.9405,-0.3184 2.3799,0.3525 0.61702,0.942 0.20483,2.6728 -0.88143,3.2613 -6.571,3.5597 -15.532,9.6986 -20.273,14.896 -0.53128,0.5825 0.27013,2.0803 1.0577,2.1154 5.9455,0.2649 9.4413,0.3487 14.103,-0.2645 3.2712,-0.4302 6.761,-1.0035 9.6076,-2.3798 3.3596,-1.6243 3.3701,4.3879 5.2886,8.9906 1.9904,4.7753 2.9906,8.2015 5.2886,13.486 1.0007,2.3012 -1.2704,3.0612 -2.6443,2.7324 -7.6158,-1.8225 -14.186,-4.7511 -20.89,-8.021 -7.9481,-3.8767 -22.741,-13.662 -22.741,-13.662 z"
         inkscape:connector-curvature="0"
         style="fill:#000000"
         sodipodi:nodetypes="casasssassssac"
         id="lower leg shoe" />
    </g>
    <g
       id="upper leg">
      <path
         inkscape:connector-curvature="0"
         style="fill:#d1703b"
         sodipodi:nodetypes="cccaaccc"
         d="m 848.27,696 -134.75,-77.39 -3.99,141.61 c 0,0 10.397,7.6902 15.956,10.97 17.605,10.386 36.074,19.338 54.848,27.424 13.811,5.9483 42.382,15.457 42.382,15.457 l 36.4,-97.816 z"
         id="upper leg skin" />
      <path
         inkscape:connector-curvature="0"
         style="fill:url(#linearGradient4241)"
         d="m 733.19,743.41 c 0,0 -0.53411,3.8382 -1.25,5.625 -0.58845,1.4687 -2.4688,4.0625 -2.4688,4.0625 l -1.9375,-1.75 4.5938,-6.7188 -3.875,-0.53125 c 0,0 -1.7703,4.3599 -3.1875,6.1875 -1.3008,1.6775 -4.75,4.2188 -4.75,4.2188 l -2.4688,11.656 c 2.6976,1.8741 5.4913,3.7725 7.625,5.0312 5.08,2.9968 10.22,5.9218 15.469,8.625 13.579,6.9938 27.313,13.738 41.406,19.625 12.6,5.2634 33.976,12.483 38.5,14 l 3.125,-6.5625 -2.6562,-1.5938 5.125,-10.938 -3.3438,-1.0625 -5.125,10.938 -3.15,-1.23 6.875,-11.656 -3.375,-1.0625 -7.2188,11.469 -2.125,-1.0625 8.28,-11.28 -1.75,-1.41 -5.4688,3.5312 -3.1562,8.625 -2.125,-0.6875 2.6562,-7.9375 -2.125,-0.71875 -4.2188,6.5312 -2.8438,-1.0625 5.8125,-9.3438 -8.4375,8.2812 -0.71875,-1.0312 9,-9.3438 -3.3438,-1.4375 -10.938,9 -1.25,-1.2188 7.0625,-9.875 -2.125,-0.71875 -7.2188,9.6875 -1.2188,-0.53125 4.4062,-5.8125 -2.125,-1.2188 -3.7188,5.4688 -4.75,0.53125 -0.53125,-1.4375 c 0,0 3.3855,-1.1921 4.5938,-2.4375 1.0064,-1.0374 1.9375,-3.9062 1.9375,-3.9062 l -2.2812,-0.53125 c 0,0 -1.4041,1.9246 -2.3125,2.6562 -1.1469,0.92369 -3.875,2.125 -3.875,2.125 l -1.4062,-1.25 c 0,0 2.5725,-1.1144 3.5312,-2.0938 0.99424,-1.0156 2.0938,-3.7188 2.0938,-3.7188 l -2.8125,-1.5938 c 0,0 -1.6606,2.8862 -2.8125,4.0625 -1.1184,1.1421 -3.875,2.8125 -3.875,2.8125 l -2.12,-1.42 c 0,0 2.5016,-1.3302 3.5312,-2.2812 1.416,-1.3079 3.5312,-4.5938 3.5312,-4.5938 l -2.3125,-1.0625 -8.0938,7.25 -1.9375,-0.71875 1.9375,-1.5938 6.1562,-5.2812 0.71875,-3 -2.4688,0 c 0,0 -1.8015,2.6774 -3,3.7188 -2.0692,1.7978 -7.0625,4.2188 -7.0625,4.2188 l -0.16,-1.21 c 0,0 4.7842,-2.1642 6.6875,-3.9062 1.4311,-1.3099 3.3438,-4.75 3.3438,-4.75 l -3,-0.6875 c 0,0 -2.1053,2.6985 -3.3438,3.875 -1.4573,1.3843 -4.75,3.6875 -4.75,3.6875 l -4.2188,0.875 -1.0625,-1.4062 c 0,0 5.0615,-2.8801 6.5,-5.2812 0.79953,-1.3346 0.90625,-4.5938 0.90625,-4.5938 l -3.19,-0.33 c 0,0 -1.3387,2.6151 -2.2812,3.7188 -1.4611,1.7109 -5.125,4.4062 -5.125,4.4062 l -1.9375,-1.5938 c 0,0 4.8792,-2.1718 6.3438,-4.25 0.8374,-1.1883 1.0625,-4.2188 1.0625,-4.2188 l -1.4062,-1.2188 -3,4.75 -1.5938,-0.1875 2.125,-5.2812 -1.75,-0.34375 -4.4062,8.9688 -2.3125,-1.4062 4.9375,-8.4688 -3.1562,-0.5 -3.5312,6.1562 -1.25,-0.875 5.3125,-8.4688 -2.3125,-0.34375 -4.5625,8.2812 -1.9688,-1.4062 6,-7.9375 -3.1562,-0.34375 -4.0625,3.875 -2.125,-2.125 4.25,-3.875 -2.4688,-0.71875 -1.9375,2.8438 -1.4062,-1.25 c 0,0 2.4882,-2.6365 3.3438,-4.2188 0.88385,-1.6346 1.75,-5.3125 1.75,-5.3125 z"
         sodipodi:nodetypes="csccccsccsaaccccccccccccccccccccccccccccccccccccsccsccsccsccsccccccccsccsccsccccccsccsccccccccccccccccccccccccscc"
         id="upper leg white" />
      <path
         inkscape:connector-curvature="0"
         style="fill:#e8c10c"
         sodipodi:nodetypes="caaacaaassc"
         d="m 838.01,691.2 c 0,0 7.8227,12.424 8.8999,19.481 2.1069,13.804 -2.3091,27.91 -5.248,41.561 -2.8547,13.26 -7.114,26.226 -11.967,38.892 -2.8828,7.5242 -10.149,21.939 -10.149,21.939 0,0 15.966,5.0641 24.11,6.9806 26.148,6.1533 52.667,10.804 79.28,14.46 23.151,3.1799 46.468,5.2904 69.806,6.482 17.596,0.89838 34.571,2.2656 52.853,0.49862 11.896,-1.1498 45.181,-8.1756 32.54,-15.054 -73.1,-39.82 -240.09,-135.24 -240.09,-135.24 z"
         id="upper leg sock" />
      <path
         d="m 857.88,701.91 c -0.16337,8.6481 -0.58523,26.141 -1.8125,36.219 -1.5352,12.607 -4.0274,25.133 -7.4062,37.375 -2.789,10.105 -6.3592,20.004 -10.594,29.594 -1.6718,3.7859 -4.6878,9.1738 -6.1562,11.75 4.1745,1.2276 8.5479,2.4652 11.75,3.2188 0.63543,0.14953 1.2704,0.28974 1.9062,0.4375 1.594,-2.8094 3.4769,-6.2769 4.6562,-8.875 3.8349,-8.4483 6.8665,-17.265 9.7188,-26.094 3.2607,-10.093 6.3192,-20.263 8.4375,-30.656 1.8589,-9.1203 3.0677,-18.402 3.7188,-27.688 0.318,-4.5351 0.32545,-11.389 0.28125,-16.844 -8.3935,-4.8691 -10.522,-6.119 -14.5,-8.4375 z"
         inkscape:connector-curvature="0"
         style="fill:#ba2a0c;stroke:#ba2a0c;stroke-width:1px"
         id="upper leg band" />
      <path
         d="m 856.22,701.62 c 0,0 -7.8312,2.9252 -8.1092,6.3463 -0.33004,4.062 8.0462,5.7971 8.2855,8.9906 0.28663,3.8251 -9.9206,6.5872 -10.401,11.811 -0.51392,5.5897 8.9676,8.852 8.638,14.456 -0.28411,4.8302 -10.193,5.9996 -12.164,14.984 -1.2025,5.4826 7.0178,10.424 5.6412,15.866 -1.3776,5.4454 -9.455,6.573 -12.516,11.282 -1.6508,2.5396 -2.9103,5.6104 -2.8206,8.6381 0.11405,3.8503 5.5048,7.1183 4.2309,10.753 -1.7934,5.1176 -14.103,8.1092 -14.103,8.1092"
         inkscape:connector-curvature="0"
         style="fill:none;stroke:#ba2a0c;stroke-width:3;stroke-linecap:round"
         sodipodi:nodetypes="casassaaaac"
         id="upper leg sock fringe 1" />
      <path
         inkscape:connector-curvature="0"
         style="fill:none;stroke:#ba2a0c;stroke-width:3;stroke-linecap:round"
         sodipodi:nodetypes="cssssssaaaac"
         d="m 872.97,711.49 c 0,0 7.4581,3.4646 7.3969,6.8496 -0.0611,3.385 -6.0938,5.3156 -6.6918,9.1925 -0.29067,1.8845 7.6914,2.9709 7.5803,9.3432 -0.17428,10.002 -9.6651,10.985 -9.8721,13.574 -0.11351,1.42 6.0658,5.1457 5.8175,10.754 -0.28411,6.4168 -11.81,8.566 -12.164,11.282 -0.45169,3.467 3.2749,6.145 3.5257,9.5195 0.19136,2.5744 -0.36673,5.3052 -1.5866,7.5803 -2.6507,4.9438 -10.508,6.5313 -11.811,11.988 -1.0316,4.3201 5.1511,8.3886 4.0546,12.693 -0.90295,3.5442 -7.9329,7.5803 -7.9329,7.5803"
         id="upper leg sock fringe 2" />
      <path
         d="m 1052.3,811.62 c 0,0 -4.4719,9.3466 -5.9938,14.279 -1.8211,5.9025 -3.702,18.158 -3.702,18.158 0,0 21.68,1.0903 32.437,0 4.9531,-0.50204 9.106,-1.3091 14.632,-2.9969 3.8198,-1.1668 2.69,-2.6365 1.4103,-4.5834 -3.5456,-5.3945 -8.4144,-8.7465 -13.75,-11.194 -3.8857,-1.7825 -3.5556,-0.96322 -5.1123,-0.26443 -4.2041,1.8871 -7.4802,5.5344 -11.459,7.9329 -2.836,1.7098 -5.6906,3.4839 -8.8143,4.5835 -1.4132,0.49743 -3.2117,1.7843 -4.4072,0.88143 -0.953,-0.71969 1.1301,-8.5533 2.2918,-12.693 1.234,-4.3971 4.936,-12.781 4.936,-12.781 z"
         inkscape:connector-curvature="0"
         style="fill:#000000"
         sodipodi:nodetypes="cacassssaasacc"
         id="upper leg shoe" />
    </g>
    <g
       id="dress and tuffet">
      <path
         d="m 257.03,922.33 151.61,0.35257 -15.513,-384.31 c 0,0 -27.349,2.879 -50.418,-4.936 -29.971,-10.153 -81.092,-49.36 -81.092,-49.36 l -31.379,28.206 25.033,308.85 z"
         inkscape:connector-curvature="0"
         style="fill:#819e7a;fill-opacity:1"
         sodipodi:nodetypes="cccscccc"
         id="dress" />
      <path
         inkscape:connector-curvature="0"
         style="fill:#000000"
         sodipodi:nodetypes="sssssssss"
         d="m 199.93,913.15 c 124.24,-0.6263 209.78,-2.7067 338.57,-1.8484 14.198,0.0946 33.082,12.232 33.407,26.427 2.073,90.544 2.1572,143.56 2.6391,229.06 0.15989,28.37 -17.32,47.863 -41.531,48.608 -120.93,3.7174 -211.4,2.4303 -338.71,3.2837 -18.953,0.1271 -30.375,-4.4354 -30.562,-33.976 -0.73327,-116.11 -2.3358,-130.46 -3.6968,-228.03 -0.39843,-28.561 2.8383,-43.339 39.874,-43.525 z"
         id="path4155" />
      <path
         d="m 267.96,1122.6 c 38.595,-109.94 86.028,-258.08 86.028,-258.08 l 139.26,-162.9 c 0,0 166.51,-113.09 208.02,-139.62 10.766,17.473 20.964,46.261 23.622,70.162 4.1704,37.492 1.8592,74.013 -2.1154,110.71 -3.4972,32.286 -11.943,71.531 -19.039,95.547 -8.2428,27.896 -20.24,63.693 -37.373,92.022 -21.189,35.036 -49.069,66.201 -79.329,93.785 -25.637,23.369 -55.986,42.08 -85.323,59.585 -29.03,17.322 -70.357,31.247 -105.07,38.783 -35.446,7.6957 -90.86,11.908 -128.69,0 z"
         inkscape:connector-curvature="0"
         style="fill:#819e7a;fill-opacity:1"
         sodipodi:nodetypes="ccccsasaassc"
         id="skirt" />
      <g
         id="flower 1">
        <path
           inkscape:connector-curvature="0"
           style="fill:#ba2a0c;stroke:#aa1e00;stroke-width:1px"
           sodipodi:nodetypes="csscsscsscaac"
           d="m 325.43,1066.2 c 5.4718,-1.2788 12.352,-1.6016 16.042,2.6443 2.387,2.7462 1.0038,10.01 -1.9214,12.093 -3.0648,2.1827 -8.4488,4.6547 -12.71,3.9487 1.408,4.0716 -1.1345,7.633 -3.1837,9.7344 -2.3822,2.443 -8.4412,3.1456 -10.919,2.2531 -5.4151,-1.9501 -6.4148,-7.0159 -6.3463,-11.282 -2.9686,1.3491 -8.9144,1.4132 -12.516,-0.7051 -3.696,-2.1737 -4.3038,-9.2943 -1.9392,-12.693 3.7596,-5.4031 8.397,-7.0477 13.045,-5.9937 -0.13164,-5.2883 1.5588,-8.5785 4.936,-10.401 3.7591,-2.0285 9.4163,-0.9778 12.693,1.7628 2.3233,1.9434 3.5188,6.1612 2.8206,8.6381 z"
           id="petals 1" />
        <path
           inkscape:connector-curvature="0"
           style="fill:#e8c10c;stroke:#aa1e00;stroke-width:1px"
           sodipodi:nodetypes="aaaaa"
           d="m 318.37,1075.2 c -2.1752,-1.727 -6.6582,-3.1323 -8.2855,-0.8815 -1.5871,2.1952 1.2327,5.7138 3.3494,7.4041 2.0622,1.6468 6.0186,3.5726 7.7566,1.5866 1.8848,-2.1536 -0.57918,-6.3297 -2.8206,-8.1092 z"
           id="center 1" />
      </g>
      <g
         id="flower 2">
        <path
           inkscape:connector-curvature="0"
           style="fill:#ba2a0c;stroke:#aa1e00;stroke-width:1px"
           sodipodi:nodetypes="csscsscsscaac"
           d="m 424.33,1045.6 c 6.3532,-1.1025 12.352,-3.3644 16.042,0.8815 2.387,2.7462 3.1991,5.8981 2.662,9.449 -0.59682,3.9455 -5.2756,8.0041 -9.3609,9.2373 1.408,4.0716 0.80465,8.867 -1.2445,10.968 -2.3822,2.443 -8.7067,4.4375 -11.272,3.8396 -3.8285,-0.8923 -5.0045,-3.6664 -5.8175,-8.2854 -2.9686,1.3491 -9.0906,2.4709 -12.693,0.3526 -3.696,-2.1737 -6.2794,-4.8639 -5.1123,-10.048 0.96451,-4.2845 2.5796,-6.1662 7.5803,-7.5802 -0.13164,-5.2883 -0.0882,-7.6331 2.1154,-10.401 2.2113,-2.7774 6.1742,-4.8567 9.6958,-4.4073 3.1498,0.402 6.3394,3.3406 7.404,5.9938 z"
           id="petals 2" />
        <path
           inkscape:connector-curvature="0"
           style="fill:#e8c10c;stroke:#aa1e00;stroke-width:1px"
           sodipodi:nodetypes="aaaaa"
           d="m 422.02,1059.6 c -1.8659,-1.903 -5.7805,-3.7275 -7.7566,-1.9392 -1.8054,1.6339 -0.47718,5.3376 1.0577,7.2278 1.9336,2.3813 6.336,5.2005 8.6381,3.1732 2.1717,-1.9124 0.0867,-6.3955 -1.9392,-8.4618 z"
           id="center 2" />
      </g>
      <g
         id="flower 3">
        <path
           inkscape:connector-curvature="0"
           style="fill:#ba2a0c;stroke:#aa1e00;stroke-width:1px"
           sodipodi:nodetypes="csscsscsscaac"
           d="m 518.43,1000.3 c 3.2369,-3.8449 8.0839,-7.2446 12.053,-6.2238 4.8688,1.2521 6.5648,7.02 6.0276,10.571 -0.59682,3.9455 -3.5304,8.0041 -7.6158,9.2373 5.6463,3.4483 6.9491,9.2776 6.11,12.09 -1.5097,5.0607 -8.956,8.6757 -11.521,8.0778 -3.8285,-0.8923 -6.3757,-3.7911 -7.1886,-8.4101 -2.3453,2.0971 -6.0989,5.9612 -11.072,5.3388 -4.2546,-0.5325 -7.1941,-2.3735 -7.4808,-7.68 -0.15737,-2.9133 0.33581,-7.2881 5.3366,-8.7021 -3.248,-3.1692 -5.4505,-8.5309 -3.8679,-12.645 1.4916,-3.8773 6.5392,-6.3366 10.693,-6.4018 3.2524,-0.0511 7.4613,2.0941 8.5259,4.7473 z"
           id="petals 3" />
        <path
           inkscape:connector-curvature="0"
           style="fill:#e8c10c;stroke:#aa1e00;stroke-width:1px"
           sodipodi:nodetypes="aaaaa"
           d="m 520.82,1011.1 c -1.5393,-2.1036 -5.3436,-3.6421 -7.5073,-2.1886 -2.4962,1.6771 -2.839,6.6439 -0.93674,8.973 1.7508,2.1436 6.1925,2.6402 8.2641,0.8048 1.894,-1.6781 1.6742,-5.5471 0.17994,-7.5892 z"
           id="center 3" />
      </g>
      <g
         id="flower 4">
        <path
           inkscape:connector-curvature="0"
           style="fill:#ba2a0c;stroke:#aa1e00;stroke-width:1px"
           sodipodi:nodetypes="csscsscsscaac"
           d="m 591.25,928.88 c 3.2369,-3.8449 6.0588,-6.2448 10.059,-5.3512 3.373,0.75351 5.0466,3.3154 5.7784,6.8313 0.89902,4.3195 -1.162,9.126 -6.2446,11.232 5.6463,3.4483 7.5046,3.7612 8.2292,6.6055 1.6066,6.3072 -0.92192,11.832 -7.2829,14.684 -4.4477,1.9945 -7.7469,0.0732 -10.056,-5.6677 -2.3453,2.0971 -4.6031,6.9584 -9.5763,6.336 -4.2546,-0.5325 -8.0667,-2.2488 -8.3533,-7.5554 -0.15737,-2.9133 1.4577,-7.2881 5.2119,-10.447 -3.6219,-2.2966 -5.177,-5.8601 -4.9898,-9.4036 0.18339,-3.4713 2.6694,-7.2017 5.8315,-8.6456 3.4798,-1.589 10.328,-1.2716 11.393,1.3817 z"
           id="petals 4" />
        <path
           inkscape:connector-curvature="0"
           style="fill:#e8c10c;stroke:#aa1e00;stroke-width:1px"
           sodipodi:nodetypes="assaa"
           d="m 590.49,936.86 c -2.4379,-0.12062 -4.2354,3.2576 -4.6403,5.6646 -0.58197,3.4598 1.8107,6.4108 4.0494,5.732 2.7534,-0.83479 3.9536,-3.9201 3.9012,-6.4251 -0.0416,-1.9905 -1.3219,-4.8731 -3.3104,-4.9715 z"
           id="center 4" />
      </g>
      <g
         id="flower 5">
        <path
           inkscape:connector-curvature="0"
           style="fill:#ba2a0c;stroke:#aa1e00;stroke-width:1px"
           sodipodi:nodetypes="csscsscsscssc"
           d="m 640.18,846.95 c 3.2369,-3.8449 2.1111,-5.4781 5.8205,-7.221 2.3758,-1.1163 7.5782,-0.60603 8.2714,1.9698 0.84116,3.1256 0.58312,6.1343 -1.5077,10.11 6.1449,0.33196 9.3744,2.2654 10.099,5.1097 1.6066,6.3072 -0.95858,10.288 -3.4187,12.191 -2.7906,2.1594 -6.251,3.4388 -10.43,-0.43227 -1.3481,3.9669 -1.2281,6.1111 -5.8367,8.0812 -4.8779,2.0852 -9.0248,-0.11724 -10.971,-5.0623 -0.65598,-1.6668 -1.16,-5.4183 2.9682,-9.45 -5.6164,-0.0529 -10.59,-2.6402 -10.973,-8.2818 -0.28608,-4.2155 2.4205,-9.1349 7.078,-10.515 3.0564,-0.90595 7.8353,0.84754 8.8999,3.5008 z"
           id="petals 5" />
        <path
           inkscape:connector-curvature="0"
           style="fill:#e8c10c;stroke:#aa1e00;stroke-width:1px"
           sodipodi:nodetypes="assaa"
           d="m 638.69,852.82 c -1.9187,1.7504 -0.86858,5.6664 0.34587,7.7837 1.4125,2.4625 4.3037,5.2889 6.5425,4.6101 2.7534,-0.83479 2.7514,-8.5129 0.28628,-11.411 -1.5639,-1.8387 -5.3913,-2.6094 -7.1746,-0.98257 z"
           id="center 5" />
      </g>
      <g
         id="flower 6">
        <path
           inkscape:connector-curvature="0"
           style="fill:#ba2a0c;stroke:#aa1e00;stroke-width:1px"
           sodipodi:nodetypes="csscsscsscssc"
           d="m 664.05,766.26 c -0.004,-5.0914 0.90824,-8.946 4.3247,-11.21 2.6251,-1.7396 9.0741,-0.73069 10.64,1.4712 1.8758,2.6379 3.2008,7.8795 0.23742,12.728 6.1449,0.33196 6.5074,2.8886 7.2319,5.733 1.6066,6.3072 -0.56703,9.0706 -2.4214,11.568 -2.3841,3.2108 -6.2339,2.9619 -10.554,0.191 -0.60019,4.5902 -0.30439,7.3572 -4.9641,9.2031 -4.0053,1.5866 -8.9002,0.50603 -10.846,-4.439 -0.65598,-1.6668 -1.7833,-5.7923 2.3449,-9.824 -5.9904,-0.55151 -8.4189,0.85008 -10.475,-4.4175 -1.1586,-2.969 -0.60601,-5.5225 1.9672,-9.6428 1.949,-3.1208 8.7613,-3.533 12.515,-1.3607 z"
           id="petals 6" />
        <path
           inkscape:connector-curvature="0"
           style="fill:#e8c10c;stroke:#aa1e00;stroke-width:1px"
           sodipodi:nodetypes="asssa"
           d="m 664.3,769 c -2.3937,1.8274 -1.5264,6.9331 -0.2774,9.0302 2.2851,3.8367 7.2579,6.3233 8.163,0.49655 0.55206,-3.5541 -0.27499,-6.8268 -1.2096,-7.9209 -1.4865,-1.7404 -4.8567,-2.9947 -6.676,-1.6058 z"
           id="center 6" />
      </g>
      <g
         id="flower 7">
        <path
           inkscape:connector-curvature="0"
           style="fill:#ba2a0c;stroke:#aa1e00;stroke-width:1px"
           sodipodi:nodetypes="csscsscsscssc"
           d="m 671.92,672.39 c -3.6179,-4.3863 -5.1812,-13.245 -2.2861,-16.146 3.5562,-3.5634 11.461,-3.7501 14.606,2.3526 1.4827,2.8773 1.3498,8.6728 -1.6136,13.521 6.1449,-0.46134 10.819,-1.0383 13.402,3.0887 2.9974,4.7898 2.4298,8.8062 0.57542,11.304 -2.3841,3.2108 -6.939,4.4604 -11.259,1.6894 -0.60019,4.5902 0.31262,8.0624 -0.99765,9.8201 -2.5748,3.454 -6.084,5.0122 -10.229,1.6429 -1.6133,-1.3112 -3.1936,-6.0567 -2.2386,-12.468 -5.5496,0.85878 -9.0359,1.2908 -11.62,-1.4206 -2.199,-2.3069 -3.2276,-6.6893 -0.7652,-10.877 2.3016,-3.9141 8.1443,-3.7093 12.427,-2.5066 z"
           id="petals 7" />
        <path
           inkscape:connector-curvature="0"
           style="fill:#e8c10c;stroke:#aa1e00;stroke-width:1px"
           sodipodi:nodetypes="asssa"
           d="m 673.67,675.86 c -2.2509,1.7219 -1.3144,6.3834 -0.10112,8.5014 1.8444,3.2197 6.0239,5.3537 8.6918,1.8187 2.1667,-2.8709 0.60645,-7.0912 -0.32812,-8.1854 -1.4865,-1.7404 -6.0033,-3.8631 -8.2626,-2.1347 z"
           id="center 7" />
      </g>
      <g
         id="flower 8">
        <path
           inkscape:connector-curvature="0"
           style="fill:#ba2a0c;stroke:#aa1e00;stroke-width:1px"
           sodipodi:nodetypes="csscsscsscssc"
           d="m 657.43,586.75 c -3.0009,-2.8879 -3.1056,-6.433 -2.6387,-7.8605 0.9177,-2.8054 4.6744,-4.9841 7.4667,-4.8752 3.2344,0.12617 5.4044,2.5909 6.0549,7.3509 2.9717,-4.6041 7.4944,-5.7313 10.229,-3.2577 3.0676,2.775 2.0516,5.1676 1.2806,7.7779 -0.82381,2.7891 -1.7386,4.1078 -6.2353,6.4492 2.6611,2.5629 4.6012,4.9947 4.3791,7.1758 -0.45939,4.5118 -3.8125,8.9279 -8.731,6.8434 -2.054,-0.8705 -4.8683,-1.3851 -5.4999,-7.7086 -3.8749,2.3572 -4.2871,3.3424 -8.0066,2.8984 -3.0804,-0.36776 -5.241,-1.6144 -5.7894,-5.4119 -0.82435,-5.7089 2.7676,-9.2623 7.4907,-9.3818 z"
           id="petals 8" />
        <path
           inkscape:connector-curvature="0"
           style="fill:#e8c10c;stroke:#aa1e00;stroke-width:1px"
           sodipodi:nodetypes="asssa"
           d="m 662.1,585.05 c -2.1216,1.3086 -2.1009,5.4322 -0.71813,7.4436 1.6681,2.4264 4.1731,3.6881 6.8408,1.5543 0.88842,-0.71063 0.78274,-5.5928 -0.15183,-6.6869 -1.4865,-1.7404 -4.1544,-3.4313 -5.9709,-2.311 z"
           id="center 8" />
      </g>
      <path
         d="m 355.75,863.69 c 0,0 -8.7691,3.4465 -11.969,6.7188 -0.98769,1.0101 -2.4439,2.4196 -1.9688,3.75 0.36335,1.0174 1.8889,1.2186 2.9688,1.25 1.7602,0.0512 5,-1.75 5,-1.75 0,0 -2.0422,3.0019 -3.5,4 -1.6052,1.099 -5.4688,1.9688 -5.4688,1.9688 l 5.9688,2.25 c 0,0 -2.0294,1.6545 -3.25,2 -1.1195,0.31685 -3.4688,0 -3.4688,0 l 3.9688,3 c 0,0 -2.5836,-0.51509 -3.7188,0 -0.80444,0.36503 -1.75,1.1166 -1.75,2 0,0.88339 1.0509,1.4287 1.75,1.9688 0.73524,0.56804 2.5,1.25 2.5,1.25 0,0 -3.6961,3.0539 -5.75,4.25 -2.1218,1.2357 -4.5122,1.923 -6.7188,3 -1.2696,0.61969 -3.6331,0.56086 -3.75,1.9688 -0.11282,1.3583 1.9954,1.9675 3.25,2.5 2.088,0.8862 6.7188,1 6.7188,1 0,0 -4.1812,1.2923 -5.7188,2.75 -0.75563,0.71643 -1.4744,1.709 -1.5,2.75 -0.0133,0.54181 0.0398,1.115 0.15625,1.7188 2.3632,-0.0243 4.7443,-0.0451 7.125,-0.0625 l -1.65,11.03 c 0.74163,1.0721 1.143,1.6448 1.3438,1.9062 l 0.75,-1.125 3.94,-11.84 6.78,-20.35 7.97,-27.9 z"
         inkscape:connector-curvature="0"
         style="fill:#ffffff"
         id="dress creese" />
      <path
         d="m 392.41,555.3 c -5.9129,0.64041 -12.072,3.9634 -15.513,8.8143 -3.0409,4.2868 -4.5485,10.55 -2.8206,15.513 1.6974,4.8761 6.6868,8.7505 11.635,10.225 4.7786,1.4236 10.722,0.74138 14.808,-2.1154 4.4818,-3.1331 7.4055,-8.9984 7.7566,-14.456 0.33916,-5.2712 -1.7903,-11.193 -5.6412,-14.808 -2.6016,-2.4426 -6.6768,-3.5574 -10.225,-3.1732 z"
         inkscape:connector-curvature="0"
         style="fill:#ba2a0c;stroke:#aa1e00;stroke-width:1px"
         sodipodi:nodetypes="aaaaaaaa"
         id="button 1" />
      <path
         d="m 393.12,600.79 c -4.1036,-0.10515 -8.3817,2.0314 -11.282,4.936 -3.5331,3.5379 -6.55,8.7814 -5.9938,13.75 0.55177,4.929 4.5775,9.4091 8.8143,11.988 3.8623,2.3504 9.0477,3.3476 13.398,2.1154 4.17,-1.1811 8.061,-4.5242 9.872,-8.4618 2.3572,-5.1251 2.9657,-12.125 0,-16.924 -2.9013,-4.6944 -9.2912,-7.2627 -14.808,-7.404 z"
         inkscape:connector-curvature="0"
         style="fill:#ba2a0c;stroke:#aa1e00;stroke-width:1px"
         sodipodi:nodetypes="aaaaaaaa"
         id="button 2" />
      <path
         d="m 395.94,642.74 c -4.921,0.8116 -9.6594,4.2559 -12.34,8.4618 -2.6896,4.2199 -4.3074,10.154 -2.468,14.808 1.849,4.6781 7.0679,8.1176 11.988,9.1669 4.4885,0.95737 9.8,-0.3237 13.398,-3.1732 4.1201,-3.2632 7.1126,-8.8474 7.0515,-14.103 -0.0526,-4.521 -2.828,-9.148 -6.3463,-11.988 -3.0401,-2.4536 -7.4277,-3.8089 -11.282,-3.1732 z"
         inkscape:connector-curvature="0"
         style="fill:#ba2a0c;stroke:#aa1e00;stroke-width:1px"
         sodipodi:nodetypes="aaaaaaaa"
         id="button 3" />
      <path
         d="m 298.45,568.35 c 0,0 5.7637,-0.61113 8.2855,0.52886 1.2116,0.54772 2.3118,1.5922 2.8206,2.8206 0.69711,1.683 -1.4166,4.3197 0,5.4649 1.3086,1.0579 4.936,-1.0577 4.936,-1.0577 0,0 -2.5808,3.524 -1.9392,5.2886 0.92656,2.5481 5.1908,2.0824 7.0515,4.0546 1.2624,1.338 3.0497,3.1909 2.468,4.936 -0.54017,1.6205 -4.5835,2.2917 -4.5835,2.2917 l 9.5195,0.70515 c 0,0 -3.1952,1.1395 -4.0546,2.468 -0.77196,1.1934 -1.2678,3.0168 -0.52886,4.2309 0.61859,1.0164 2.1781,1.0251 3.3494,1.234 2.2561,0.40238 6.8752,0 6.8752,0 0,0 -6.0801,0.53538 -7.404,2.8206 -1.1333,1.9561 -0.41831,4.9866 1.0577,6.6989 1.4076,1.6329 6.17,1.9392 6.17,1.9392 0,0 -4.6451,0.6531 -4.4072,2.2917 0.26657,1.8362 5.4649,1.0577 5.4649,1.0577 0,0 -5.0622,1.0762 -4.936,2.9969 0.21034,3.203 8.8143,3.8783 8.8143,3.8783 0,0 -5.6659,1.4493 -7.9329,3.1732 -1.2349,0.93901 -2.6754,2.1575 -2.8206,3.702 -0.11066,1.1774 0.72209,2.3662 1.5866,3.1732 1.1169,1.0425 4.2309,1.7629 4.2309,1.7629 0,0 -6.5178,0.359 -6.3463,2.6443 0.18131,2.416 7.0515,1.7629 7.0515,1.7629 0,0 -6.1883,-0.10882 -6.3463,2.1154 -0.16766,2.3592 6.3463,3.1732 6.3463,3.1732 l -8.6381,1.9392 c 0,0 5.2259,1.2024 5.6412,3.3494 0.23882,1.2347 -1.1752,2.4182 -2.2917,2.9969 -1.3574,0.70359 -3.1615,-0.38553 -4.5834,0.17628 -1.0848,0.42859 -2.6443,2.2917 -2.6443,2.2917 0,0 1.4689,0.7356 2.1154,1.234 0.92142,0.71032 2.468,2.468 2.468,2.468 l -7.7566,1.4103 c 0,0 4.0008,2.235 4.5835,4.2309 0.32352,1.1082 0.0329,2.6446 -0.88143,3.3494 -1.3962,1.0763 -3.5916,-0.47747 -5.2886,0 -1.1933,0.33574 -2.5668,0.85799 -3.1732,1.9392 -1.4947,2.6651 1.7405,6.6554 0,9.1669 -0.85792,1.238 -4.2309,1.5866 -4.2309,1.5866 0,0 1.2668,3.8849 0.35257,5.4649 -2.0664,3.5712 -7.16,4.2598 -11.106,5.4649 -2.4957,0.76218 -7.7566,1.0577 -7.7566,1.0577 z"
         inkscape:connector-curvature="0"
         style="fill:#ffffff"
         sodipodi:nodetypes="caaacaaaccaaacaacacacaaacacaccaaacaccaaaaacaacc"
         id="armpit" />
      <path
         d="m 240.81,711.85 -49.01,-7.06 -0.35257,-8.8143 c 0,0 -7.2114,2.1652 -10.577,1.0577 -3.1615,-1.0403 -6.0094,-3.677 -7.404,-6.6989 -1.6751,-3.6297 -0.35258,-11.988 -0.35258,-11.988 0,0 -9.0529,-2.8148 -12.34,-5.9938 -3.4389,-3.3257 -6.362,-7.9205 -6.6989,-12.693 -0.34298,-4.8577 4.936,-13.75 4.936,-13.75 0,0 -8.3361,-6.0517 -10.225,-10.577 -2.0372,-4.8819 -2.2653,-10.934 -0.35257,-15.866 1.2924,-3.3325 7.404,-7.7566 7.404,-7.7566 0,0 -4.9402,-6.8974 -5.2886,-10.93 -0.44187,-5.1145 1.1533,-10.699 4.2309,-14.808 1.5833,-2.1138 6.6989,-4.2309 6.6989,-4.2309 0,0 1.2267,-7.5214 2.8206,-10.93 2.8184,-6.0269 6.9398,-11.504 11.635,-16.218 17.402,-17.473 59.938,-43.367 59.938,-43.367 l 66.284,58.88 c 0,0 5.3324,6.8407 6.3463,10.93 0.70765,2.854 -0.35257,8.8143 -0.35257,8.8143 0,0 6.473,2.5158 8.8143,4.936 2.6679,2.7578 4.3815,6.4963 5.2886,10.225 0.91688,3.7684 1.2838,7.9752 0,11.635 -0.99636,2.8404 -5.6412,7.0515 -5.6412,7.0515 0,0 4.7879,5.9311 5.6412,9.5195 1.199,5.0425 0.54808,10.585 -1.0577,15.513 -1.1617,3.5652 -3.4078,6.8041 -5.9938,9.5195 -1.9787,2.0777 -7.0515,4.936 -7.0515,4.936 0,0 1.8608,4.8689 1.7629,7.404 -0.13348,3.4539 -1.1124,7.097 -3.1732,9.8721 -3.5762,4.8158 -14.808,10.225 -14.808,10.225 z"
         inkscape:connector-curvature="0"
         style="fill:#819e7a;fill-opacity:1"
         sodipodi:nodetypes="cccaacaacaacaacaaccacaaacaaacaacc"
         id="sleeve" />
      <path
         d="m 190.04,717.84 0.70515,-19.039 c 0,0 7.3542,5.2548 11.635,6.3463 11.274,2.8748 23.324,1.1209 34.905,0 10.37,-1.0036 20.67,-3.0849 30.674,-5.9938 8.3616,-2.4314 24.328,-9.5195 24.328,-9.5195 l 2.468,11.988 c 0,0 -12.002,6.8136 -18.334,9.5195 -9.7059,4.1477 -19.687,7.8373 -29.969,10.225 -9.0024,2.0903 -18.262,3.2982 -27.501,3.5257 -6.0103,0.148 -12.199,0.236 -17.981,-1.4103 -3.9432,-1.1227 -10.93,-5.6412 -10.93,-5.6412 z"
         inkscape:connector-curvature="0"
         style="fill:#ffffff"
         sodipodi:nodetypes="ccaaaccaaaac"
         id="cuff" />
      <path
         d="m 346.04,570.99 -4.4875,-76.288 c 0,0 -17.515,-3.2462 -25.18,-7.4792 -12.681,-7.0033 -32.659,-28.67 -32.659,-28.67 l -22.438,29.917 c 0,0 11.401,20.217 18.698,29.169 12.03,14.759 25.524,28.641 40.886,39.889 7.6792,5.6228 25.18,13.463 25.18,13.463 z"
         inkscape:connector-curvature="0"
         style="fill:#ffffff"
         sodipodi:nodetypes="ccaccaac"
         id="collar" />
    </g>
    <g
       id="head">
      <path
         inkscape:connector-curvature="0"
         style="fill:#d1703b"
         d="m 383.68,251.63 7.4792,9.4737 6.7313,16.953 2.2438,22.438 3.7396,20.194 7.2299,10.97 8.9751,11.468 -10.97,12.715 3.241,6.7313 0.99722,12.715 -3.9889,22.438 -10.222,20.443 -10.72,14.211 -20.443,11.967 -17.701,6.2327 -2.9917,16.454 -13.961,28.421 -54.598,-26.177 3.7396,-230.36 z"
         id="face" />
      <path
         d="m 287.2,246.15 43.13,13.213 -11.219,30.914 7.9778,-2.9917 4.7368,0.24931 -2.7424,2.7424 -7.4792,4.7368 -8.7258,2.2438 -2.9917,2.2438 2.4931,0.74792 7.4792,-3.241 6.9806,-2.2438 5.9834,-3.4903 -3.4903,3.7396 -3.7396,1.7452 1.9945,0.74792 5.7341,-2.9917 2.2438,0.74792 -1.4958,1.2465 -2.4931,1.7452 -3.7396,0 -1.9945,1.2465 2.7424,0.49861 4.2382,0.49862 -1.9945,2.2438 -4.2382,0.24931 -4.2382,0 -1.9945,1.2465 1.9945,0.74792 5.4848,0.49861 5.7341,-0.99723 3.9889,-1.9944 2.4931,0.49861 -0.99723,2.4931 -4.4875,1.7452 -7.4792,4.2382 -5.2354,2.9917 3.7396,0 6.9806,-2.7424 3.9889,-2.9917 2.7424,-0.2493 -2.4931,2.9917 -3.9889,2.9917 3.241,1.4958 -2.4931,1.4958 -3.4903,0 -1.7452,0.99723 2.4931,0.74792 4.7368,-0.49861 2.7424,-1.4958 3.4903,0 1.7452,0.74792 -1.4958,2.2438 -3.9889,3.4903 -6.7313,0.49862 -8.2271,1.7452 -2.4931,1.2465 3.241,1.4958 5.9834,-1.7452 3.7396,-0.2493 1.4958,0.99723 -2.2438,1.2465 -5.2354,0.99723 -6.7313,0.24931 -2.9917,0.74792 3.241,0.74792 6.9806,0 4.9861,-1.4958 3.241,-0.99723 0.24931,1.7452 -1.2465,1.7452 -3.241,0.49861 -2.2438,1.7452 2.9917,0.24931 3.9889,-0.24931 0.74792,-1.9944 0.74792,-2.7424 3.9889,0.49861 1.7452,1.2465 -2.4931,1.9944 -2.7424,2.9917 -4.7368,1.4958 -3.7396,0.99723 3.4903,0.99723 4.4875,-0.24931 4.4875,-2.2438 3.241,-0.74792 -0.74792,2.7424 -3.241,2.2438 -4.4875,0 -2.4931,1.9945 2.4931,0.49861 4.7368,0 3.9889,-0.49861 0.49861,1.7452 -1.4958,2.7424 -5.4848,0.74793 -6.2327,0.74792 -6.9806,0.99723 -3.4903,2.4931 4.4875,-0.49862 7.4792,-0.74792 7.4792,-0.99723 5.9834,-0.99723 2.7424,0.49862 -3.241,2.7424 -3.7396,1.7452 -5.9834,-0.49862 -2.7424,0.99723 2.7424,1.2465 5.9834,-0.24931 4.9861,-0.74792 1.9945,1.2465 -0.99723,2.4931 -5.2354,0.99722 -6.482,-0.2493 -5.2354,-1.4958 -1.9945,-1.2465 -1.7452,0.99723 1.7452,2.7424 8.4764,0.49861 5.9834,1.7452 2.4931,1.7452 -2.9917,0.99723 -7.7285,-0.24931 -8.9751,-1.2465 -8.4764,0 -3.4903,1.4958 3.7396,1.2465 12.715,-0.49861 5.4848,0.99723 1.9944,1.2465 -2.7424,0.74793 -6.7313,0 3.9889,1.2465 3.7396,0.74792 -4.7368,1.4958 -4.2382,1.2465 -2.4931,1.2465 4.2382,0.74792 3.241,-1.2465 4.7368,-1.9944 2.9917,0.2493 -1.7452,2.2438 -3.4903,1.2465 -4.4875,0.49862 -1.4958,0.99723 3.4903,0.74792 4.7368,0 4.4875,-0.74792 3.241,0.99722 -0.99722,1.4958 -5.2354,0.49861 -7.7285,-0.99723 -6.7313,0.49862 -3.241,1.4958 2.9917,0.99723 5.7341,-0.49862 7.9778,0.24931 5.9834,0.24931 2.4931,1.2465 -1.4958,2.2438 -4.4875,0.99723 -6.2327,-0.24931 -4.2382,-0.99723 -3.4903,-0.49861 -3.241,1.7452 2.2438,1.9944 5.4848,-0.2493 4.7368,-0.49862 6.482,0.24931 2.7424,2.2438 -1.2465,2.7424 -5.7341,0 -5.2354,-0.74792 -4.4875,0.24931 -0.99723,2.4931 2.9917,0.24931 4.2382,-0.74793 2.9917,2.2438 -0.49861,1.7452 -5.4848,0 -3.7396,-0.99723 -3.4903,1.2465 -2.2438,1.7452 1.9945,0.99722 4.4875,0.24931 2.7424,1.7452 3.4903,-0.49861 0.74792,1.7452 -2.7424,1.7452 -2.9917,-1.9945 -3.4903,-1.2465 -3.4903,0.24931 2.7424,2.2438 4.2382,0.2493 1.7452,1.4958 -0.49861,2.2438 -1.7452,0.49861 -3.9889,-2.9917 -4.2382,-1.4958 -4.7368,-0.24931 -3.241,0.99723 2.2438,1.7452 5.2354,-0.74792 4.2382,1.9944 2.7424,2.4931 -3.4903,-0.99722 -3.7396,-0.74793 -2.9917,0.49862 1.7452,1.4958 4.9861,0 2.9917,0.99723 -1.7452,1.2465 -3.9889,2.7424 -0.24931,2.7424 2.9917,-0.74792 1.4958,-2.9917 3.7396,-0.2493 -0.49862,1.9944 -2.9917,3.4903 -3.7396,2.9917 -0.49861,1.9945 3.241,0.2493 2.7424,-2.7424 2.4931,-0.74793 -1.7452,3.241 -3.9889,2.2438 -6.7313,0.49862 -4.9861,-0.74793 -0.99723,1.2465 2.4931,0.49861 7.4792,0 4.7368,-1.2465 3.7396,-0.24931 1.2465,1.9945 -0.74793,2.7424 -2.7424,0.99723 -4.4875,-0.49862 -4.7368,-1.9945 -5.2354,-0.2493 -3.241,0.99723 2.9917,0.99722 5.7341,1.9945 4.4875,0.24931 5.2354,0 5.2354,-0.74792 3.7396,0.99723 0.24931,2.2438 -2.7424,0.99723 -8.975,-0.74792 -1.9945,1.2465 2.9917,1.2465 7.2299,0.24931 2.4931,1.2465 -1.7452,1.9945 -5.2354,0 -4.4875,-1.7452 -6.7313,-0.49862 -3.241,1.4958 -3.7396,0.74792 -1.7452,1.2465 2.7424,1.2465 6.2327,0.49861 3.241,-0.74792 7.4792,0.74792 4.2382,1.2465 -1.4958,1.9945 -4.9861,1.2465 -4.9861,1.2465 -9.9723,0.2493 -2.9917,0.99723 3.7396,1.2465 9.4737,-0.49862 4.7368,1.4958 -0.24931,1.9944 -8.4764,0 -5.2354,-1.7452 -3.241,0.24931 3.4903,1.7452 5.9834,1.2465 7.2299,0 3.241,1.7452 -1.2465,1.7452 -8.7258,0 -5.9834,-1.4958 -5.2354,-1.7452 -3.241,0 3.7396,2.2438 8.4764,1.9945 2.7424,0.99722 -4.2382,0.74793 -6.2327,-0.74793 -4.2382,-1.7452 -2.7424,0.49862 4.2382,2.2438 7.2299,0.99723 6.7313,0.24931 4.9861,-0.49862 1.7452,0.99723 -1.9944,1.7452 -9.4737,-0.74792 -8.975,-1.4958 -4.2382,0.49861 2.4931,1.4958 9.9723,1.2465 7.4792,0.74792 1.9944,1.4958 -2.7424,0.99722 -14.709,-1.9944 -3.7396,-0.24931 2.7424,1.7452 8.2271,0.74792 1.7452,2.2438 -1.4958,2.4931 -7.7285,-1.9945 -5.9834,-0.49862 2.9917,2.2438 6.2327,0.49861 -3.241,3.4903 -33.906,-14.21 c 0.27217,-68.888 -20.745,-162.53 11.468,-224.88 z"
         inkscape:connector-curvature="0"
         style="fill:url(#linearGradient4219)"
         sodipodi:nodetypes="cccccccccccccccccccccccccccccccccccccccccccccccccccccccccccccccccccccccccccccccccccccccccccccccccccccccccccccccccccccccccccccccccccccccccccccccccccccccccccccccccccccccccccccccccccccccccccccccccccccccccccccccccccccccccccccccccccccccccccccccccccccccccccccccccccccccccccccccccccccccccccccccccccccccccccccccccccccccccccccccccc"
         id="hair shadow" />
      <path
         inkscape:connector-curvature="0"
         style="fill:#e8c10c"
         sodipodi:nodetypes="aaaaaaaaaaaaaaaaaaaaaacaaacaaaacaaaaaaaaacaaassaaaaaaaaaaa"
         d="m 194.71,544.07 c -4.0195,1.7243 -8.3609,3.6584 -12.715,3.241 -4.8476,-0.46476 -9.5477,-3.0266 -13.213,-6.2327 -3.7998,-3.3234 -6.6996,-7.9032 -8.2271,-12.715 -1.8623,-5.8661 -1.7459,-12.376 -0.74792,-18.449 1.0536,-6.4114 3.9387,-12.458 6.9806,-18.199 3.7451,-7.0686 10.576,-12.336 13.712,-19.695 1.8271,-4.2881 2.6089,-9.0527 2.7424,-13.712 0.1875,-6.5434 -0.84283,-13.181 -2.7424,-19.446 -2.8905,-9.5326 -9.5438,-17.57 -12.964,-26.925 -5.7164,-15.637 -9.3827,-32.005 -12.465,-48.366 -2.3093,-12.257 -4.3318,-24.675 -4.4875,-37.147 -0.16363,-13.105 0.98827,-26.327 3.7396,-39.141 2.7639,-12.873 6.9595,-25.554 12.715,-37.396 4.5944,-9.4534 10.263,-18.532 17.202,-26.427 5.8381,-6.6412 12.673,-12.552 20.194,-17.202 9.2164,-5.6979 19.646,-9.2623 29.917,-12.715 11.291,-3.7953 22.839,-7.2071 34.654,-8.7257 9.1495,-1.1761 18.579,-1.7969 27.673,-0.24931 5.3125,0.90407 10.255,3.362 15.208,5.4848 3.5868,1.5372 6.5992,4.7476 10.471,5.2354 3.1212,0.39332 6.1589,-2.701 9.2244,-1.9944 1.4418,0.33229 3.4903,2.7424 3.4903,2.7424 0,0 3.2004,-3.1691 5.2354,-3.9889 2.0174,-0.81276 4.3436,-1.1455 6.482,-0.74792 1.9369,0.3601 3.823,1.369 5.2354,2.7424 1.7071,1.66 3.4903,6.2327 3.4903,6.2327 0,0 4.6403,-5.395 7.7285,-6.9806 3.4801,-1.7868 7.5591,-2.6444 11.468,-2.4931 3.4679,0.13427 7.1948,0.91097 9.9723,2.9917 3.173,2.377 5.4555,6.1429 6.482,9.9723 0.81875,3.0544 -0.49861,9.4737 -0.49861,9.4737 0,0 5.6458,-1.179 8.2271,-0.24931 2.6037,0.93771 4.6423,3.2199 6.2327,5.4848 1.6938,2.4122 2.9255,5.2966 3.241,8.2271 0.33345,3.0971 0.0406,6.5147 -1.4958,9.2244 -2.0364,3.5912 -6.2004,5.4619 -9.4737,7.9778 -6.4342,4.9454 -13.085,9.6255 -19.945,13.961 -10.099,6.3826 -20.734,11.874 -31.163,17.701 -7.5328,4.2085 -14.846,8.8636 -22.687,12.465 -4.5165,2.0746 -9.5048,3.0348 -13.961,5.2354 -5.6236,2.777 -15.956,9.9723 -15.956,9.9723 0,0 6.6034,-11.262 8.4764,-17.452 1.6033,-5.2982 1.9945,-10.924 2.2438,-16.454 0.16485,-3.6566 0.61008,-7.4812 -0.49861,-10.97 -1.1661,-3.6689 -2.3843,-9.8234 -6.2327,-9.723 -5.2543,0.13704 -8.847,1.7418 -9.723,3.4903 -2.458,4.9066 -2.8358,7.854 -3.241,11.967 -1.078,10.942 0.825,22.005 2.2438,32.909 2.2061,16.954 6.2075,33.629 9.723,50.36 1.9276,9.1741 4.7142,18.173 6.2327,27.424 1.1908,7.2541 2.1252,14.589 2.2438,21.939 0.11556,7.1632 -0.13528,14.407 -1.4958,21.44 -2.1561,11.147 -5.3605,22.272 -10.471,32.41 -8.0968,16.062 -19.105,30.76 -31.413,43.878 -6.021,6.4175 -13.534,11.253 -20.443,16.704 -8.9387,7.0517 -17.816,14.209 -27.174,20.692 -6.2925,4.3592 -12.411,9.1982 -19.446,12.216 z"
         id="hair" />
      <path
         inkscape:connector-curvature="0"
         style="fill:#ba2a0c;stroke:#aa1e00;stroke-width:1px"
         sodipodi:nodetypes="caacacaacaac"
         d="m 289.69,250.88 c 0,0 0.29649,-10.915 1.4958,-16.205 2.1741,-9.5902 5.4302,-19.086 10.222,-27.673 3.5478,-6.3585 13.463,-17.202 13.463,-17.202 0,0 5.2511,0.36844 7.8532,0.74792 2.9755,0.43394 8.8504,1.7452 8.8504,1.7452 0,0 -7.2556,10.039 -10.222,15.457 -5.0198,9.1704 -9.5608,18.703 -12.715,28.67 -2.5813,8.1577 -4.9861,25.18 -4.9861,25.18 0,0 -0.9634,-5.9486 -2.7424,-8.2271 -1.3336,-1.7081 -3.3597,-3.0656 -5.4848,-3.4903 -1.9024,-0.38023 -5.7341,0.99722 -5.7341,0.99722 z"
         id="hairband" />
      <g
         id="eye">
        <path
           inkscape:connector-curvature="0"
           style="fill:#ffffff"
           sodipodi:nodetypes="aaaaaaaaaaaaaa"
           d="m 367.48,281.8 c 4.7309,0.83156 9.1374,3.7662 12.465,7.2299 4.6874,4.8786 7.0941,11.617 9.4737,17.95 2.4033,6.3965 4.0464,13.146 4.7368,19.945 0.54602,5.3766 0.7477,10.946 -0.49862,16.205 -1.1833,4.9926 -2.5266,10.693 -6.482,13.961 -2.1131,1.746 -5.2422,2.1685 -7.9778,1.9945 -3.6501,-0.23226 -7.2494,-1.8576 -10.222,-3.9889 -4.4099,-3.1623 -7.6829,-7.8098 -10.471,-12.465 -2.7591,-4.6072 -4.5477,-9.7837 -5.9834,-14.958 -1.6655,-6.0031 -3.035,-12.219 -2.9917,-18.449 0.0399,-5.7381 0.98342,-11.578 2.9917,-16.953 1.1871,-3.1774 2.4436,-6.7994 5.2354,-8.7257 2.7102,-1.8701 6.4799,-2.3152 9.723,-1.7452 z"
           id="sclera" />
        <path
           inkscape:connector-curvature="0"
           style="fill:#000000"
           sodipodi:nodetypes="aaasaaaaaaa"
           d="m 365.23,308.97 c -0.16261,-4.6982 -0.34578,-9.8841 1.9945,-13.961 1.5313,-2.6677 4.1544,-5.7863 7.2299,-5.7341 4.362,0.0741 8.3192,4.8225 9.9723,8.4764 2.5778,5.698 4.4013,9.2795 5.7341,14.211 1.2052,4.4587 2.1436,9.0956 1.9945,13.712 -0.0905,2.8019 0.17962,6.1889 -1.7452,8.2271 -1.3011,1.3778 -3.592,1.5896 -5.4848,1.4958 -3.0213,-0.1496 -5.9864,-1.5234 -8.4764,-3.241 -3.3915,-2.3394 -6.3623,-5.5505 -8.2271,-9.2244 -2.1542,-4.244 -2.827,-9.2047 -2.9917,-13.961 z"
           id="pupil" />
        <path
           inkscape:connector-curvature="0"
           style="fill:#ffffff"
           sodipodi:nodetypes="aaaaa"
           d="m 383.68,323.68 c 1.7799,0.25276 4.7834,1.2184 4.4875,2.9917 -0.26872,1.6104 -3.1214,1.4834 -4.7368,1.2465 -1.7345,-0.25437 -4.6997,-1.0022 -4.4875,-2.7424 0.20042,-1.6436 3.0975,-1.7286 4.7368,-1.4958 z"
           id="reflection" />
      </g>
      <g
         style="fill:#ba2a0c"
         id="freckles">
        <ellipse
           id="fr01"
           cx="364.1203"
           cy="380.07428"
           rx="1.145864"
           ry="1.0577205" />
        <ellipse
           transform="matrix(0.94878,0.31593,-0.31593,0.94878,142.41,-96.747)"
           id="fr02"
           cx="373.37537"
           cy="384.92215"
           rx="2.5561581"
           ry="1.2340074" />
        <ellipse
           transform="translate(16.924,2.6443)"
           id="fr03"
           cx="364.1203"
           cy="380.07428"
           rx="1.145864"
           ry="1.0577205" />
        <ellipse
           id="fr04"
           cx="372.18542"
           cy="365.17804"
           rx="1.4543658"
           ry="1.2340074" />
        <ellipse
           transform="translate(8.6381,12.164)"
           id="fr05"
           cx="372.18542"
           cy="365.17804"
           rx="1.4543658"
           ry="1.2340074" />
        <ellipse
           transform="translate(26.267,6.2582)"
           id="fr06"
           cx="364.1203"
           cy="380.07428"
           rx="1.145864"
           ry="1.0577205" />
        <ellipse
           transform="translate(25.826,0.96958)"
           id="fr07"
           cx="364.1203"
           cy="380.07428"
           rx="1.145864"
           ry="1.0577205" />
        <ellipse
           id="fr08"
           cx="375.35858"
           cy="378.97247"
           rx="2.0713694"
           ry="0.92550552" />
        <ellipse
           transform="translate(34.817,-8.9906)"
           id="fr09"
           cx="364.1203"
           cy="380.07428"
           rx="1.145864"
           ry="1.0577205" />
        <ellipse
           transform="translate(14.632,13.222)"
           id="fr10"
           cx="372.18542"
           cy="365.17804"
           rx="1.4543658"
           ry="1.2340074" />
        <ellipse
           id="fr11"
           cx="397.79108"
           cy="367.51385"
           rx="1.5865809"
           ry="1.3662224" />
        <ellipse
           transform="translate(31.82,-2.9087)"
           id="fr12"
           cx="364.1203"
           cy="380.07428"
           rx="1.145864"
           ry="1.0577205" />
        <ellipse
           transform="translate(20.978,-4.936)"
           id="fr13"
           cx="364.1203"
           cy="380.07428"
           rx="1.145864"
           ry="1.0577205" />
        <ellipse
           transform="translate(22.212,-7.6685)"
           id="fr14"
           cx="364.1203"
           cy="380.07428"
           rx="1.145864"
           ry="1.0577205" />
        <ellipse
           transform="translate(31.555,-6.6989)"
           id="fr15"
           cx="364.1203"
           cy="380.07428"
           rx="1.145864"
           ry="1.0577205" />
        <ellipse
           transform="translate(19.832,7.0515)"
           id="fr16"
           cx="372.18542"
           cy="365.17804"
           rx="1.4543658"
           ry="1.2340074" />
        <ellipse
           transform="translate(19.744,4.1427)"
           id="fr17"
           cx="372.18542"
           cy="365.17804"
           rx="1.4543658"
           ry="1.2340074" />
        <ellipse
           transform="translate(19.568,-9.3432)"
           id="fr18"
           cx="372.18542"
           cy="365.17804"
           rx="1.4543658"
           ry="1.2340074" />
        <ellipse
           transform="translate(22.477,-3.6139)"
           id="fr19"
           cx="372.18542"
           cy="365.17804"
           rx="1.4543658"
           ry="1.2340074" />
        <ellipse
           transform="translate(25.385,-22.917)"
           id="fr20"
           cx="364.1203"
           cy="380.07428"
           rx="1.145864"
           ry="1.0577205" />
        <ellipse
           transform="translate(34.111,-20.009)"
           id="fr21"
           cx="364.1203"
           cy="380.07428"
           rx="1.145864"
           ry="1.0577205" />
        <ellipse
           transform="translate(7.2278,8.2855)"
           id="fr22"
           cx="372.18542"
           cy="365.17804"
           rx="1.4543658"
           ry="1.2340074" />
        <ellipse
           transform="translate(17.452,-8.3736)"
           id="fr23"
           cx="364.1203"
           cy="380.07428"
           rx="1.145864"
           ry="1.0577205" />
        <ellipse
           transform="translate(16.571,2.9969)"
           id="fr24"
           cx="372.18542"
           cy="365.17804"
           rx="1.4543658"
           ry="1.2340074" />
        <ellipse
           transform="translate(19.48,-10.136)"
           id="fr25"
           cx="364.1203"
           cy="380.07428"
           rx="1.145864"
           ry="1.0577205" />
        <ellipse
           transform="translate(21.595,-11.547)"
           id="fr26"
           cx="364.1203"
           cy="380.07428"
           rx="1.145864"
           ry="1.0577205" />
        <ellipse
           transform="translate(10.489,-16.307)"
           id="fr27"
           cx="364.1203"
           cy="380.07428"
           rx="1.145864"
           ry="1.0577205" />
        <ellipse
           transform="translate(12.957,-17.452)"
           id="fr28"
           cx="364.1203"
           cy="380.07428"
           rx="1.145864"
           ry="1.0577205" />
        <ellipse
           transform="translate(12.957,-11.37)"
           id="fr29"
           cx="364.1203"
           cy="380.07428"
           rx="1.145864"
           ry="1.0577205" />
        <ellipse
           transform="translate(17.541,-13.045)"
           id="fr30"
           cx="364.1203"
           cy="380.07428"
           rx="1.145864"
           ry="1.0577205" />
        <ellipse
           transform="translate(20.009,-2.1154)"
           id="fr31"
           cx="372.18542"
           cy="365.17804"
           rx="1.4543658"
           ry="1.2340074" />
        <ellipse
           transform="translate(17.1,-2.2917)"
           id="fr32"
           cx="372.18542"
           cy="365.17804"
           rx="1.4543658"
           ry="1.2340074" />
        <ellipse
           transform="translate(13.927,-5.553)"
           id="fr33"
           cx="372.18542"
           cy="365.17804"
           rx="1.4543658"
           ry="1.2340074" />
        <ellipse
           transform="translate(14.367,-2.5562)"
           id="fr34"
           cx="372.18542"
           cy="365.17804"
           rx="1.4543658"
           ry="1.2340074" />
        <ellipse
           transform="translate(11.37,-1.234)"
           id="fr35"
           cx="372.18542"
           cy="365.17804"
           rx="1.4543658"
           ry="1.2340074" />
        <ellipse
           transform="translate(17.717,-18.775)"
           id="fr36"
           cx="364.1203"
           cy="380.07428"
           rx="1.145864"
           ry="1.0577205" />
        <ellipse
           transform="translate(21.683,2.8206)"
           id="fr37"
           cx="364.1203"
           cy="380.07428"
           rx="1.145864"
           ry="1.0577205" />
        <ellipse
           transform="translate(29.352,-0.617)"
           id="fr38"
           cx="364.1203"
           cy="380.07428"
           rx="1.145864"
           ry="1.0577205" />
      </g>
    </g>
    <g
       id="picture book">
      <path
         inkscape:connector-curvature="0"
         style="fill:#c9c6ba;fill-opacity:1"
         d="m 655.18,408.69 -52.853,63.324 109.2,74.294 z"
         id="inner" />
      <path
         inkscape:connector-curvature="0"
         style="fill:#ffffff"
         sodipodi:nodetypes="cccccc"
         d="m 580.89,449.08 c 57.011,37.458 84.857,58.992 128.64,94.238 2.9168,3.2823 6.482,11.468 6.482,11.468 l -244.82,161.05 -23.435,-33.906 c 0,0 97.194,-166.89 133.13,-232.85 z"
         id="outer" />
    </g>
    <g
       id="arm">
      <path
         d="m 326.09,826.28 c -15.98,3.1785 -32.7,3.2931 -48.864,1.2465 -12.344,-1.5628 -25.409,-3.5321 -35.9,-10.222 -8.8922,-5.6701 -20.692,-23.933 -20.692,-23.933 l 220.14,-121.41 c 0,0 11.505,-0.26603 17.202,-0.99723 18.073,-2.3196 53.601,-10.72 53.601,-10.72 0,0 -1.9457,11.356 -3.9889,16.704 -3.7427,9.795 -9.0365,19.02 -14.958,27.673 -14.417,21.066 -30.626,41.275 -49.612,58.338 -18.549,16.671 -39.738,30.557 -61.828,42.133 -17.429,9.1331 -35.798,17.352 -55.097,21.191 z"
         inkscape:connector-curvature="0"
         style="fill:#ffffff"
         sodipodi:nodetypes="aaaccacaaaaa"
         id="arm shadow" />
      <path
         d="m 439.28,660.5 c -5.8841,0.80798 -11.641,2.8439 -16.969,5.4688 -11.311,5.5724 -20.733,14.343 -31.156,21.438 -16.481,11.218 -32.103,23.837 -49.594,33.406 -15.412,8.4323 -48.375,20.969 -48.375,20.969 0,0 -4.366,-8.2123 -4.75,-12.719 -0.62469,-7.3315 -0.70326,-17.874 -0.71875,-23.562 -3.7424,2.0112 -8.2149,4.3325 -11.312,5.6562 -4.8529,2.0739 -9.7562,4.0107 -14.75,5.75 -4.9938,1.7393 -10.078,3.2751 -15.219,4.4688 -4.5012,1.0452 -9.0613,1.8458 -13.656,2.4375 -4.595,0.59171 -9.2242,0.97999 -13.844,1.0938 -3.0052,0.074 -6.0413,0.10279 -9.0625,-0.0625 -1.5106,-0.0826 -3.0128,-0.21655 -4.5,-0.4375 -1.4872,-0.22095 -2.9607,-0.52593 -4.4062,-0.9375 -0.15867,-0.0452 -0.39463,-0.19434 -0.5625,-0.25 -0.0603,4.2974 -0.11434,12.177 0.53125,17.562 1.296,10.811 3.0577,21.756 7,31.906 3.4782,8.9551 7.9997,17.807 14.438,24.938 7.0177,7.773 15.724,14.524 25.438,18.438 12.296,4.954 26.122,5.8078 39.375,5.5 18.087,-0.41999 36.309,-3.9938 53.375,-10 22.235,-7.8255 42.506,-20.626 62.312,-33.406 15.838,-10.22 31.444,-21.182 44.875,-34.406 18.127,-17.847 32.568,-39.128 47.375,-59.812 3.5692,-4.9857 9.3796,-9.3655 9.9688,-15.469 0.086,-0.8909 -0.11481,-2.6324 -1,-2.5 -25.573,3.8261 -43.296,9.7782 -61.312,10.469 -1.1744,0.045 -3.2756,-1.5858 -2.5,-2.4688 3.31,-3.77 11.46,-12.97 11.46,-12.97 0,0 -8.349,-1.0657 -12.469,-0.5 z"
         inkscape:connector-curvature="0"
         style="fill:#d1703b"
         id="arm skin" />
      <path
         d="m 491.38,674.22 0,4.4688 5.5,2 -6.5,8.7188 -1.25,-4.2188 4.25,-1.25 -0.25,-3 -2,-0.25 -9.9688,4 -3,-3.5 -6.2188,4 0,4.2188 -2.75,1.5 -4.9688,0.25 2.25,5.75 3.4688,-3.5 2.5,3.25 0.5,4.7188 2.75,0.25 -0.25,-4.7188 -4,-4.75 1.5,-2 6.2188,5.5 0.25,7.2188 -6.7188,0.75 0,2.75 4.75,-0.5 -6.25,3.7188 -6.9688,-1.2188 -0.75,-12.469 -3.75,0.25 0.5,7.4688 -5.9688,0 4.2188,3.25 5.5,14.938 -3.25,4 -4.25,-12.969 -3.7188,-3.5 -2.5,1.5 3.5,8.75 -2,1.9688 -3.75,-7.4688 -2.25,1 3,15.719 3.25,0.75 -2.25,-8.5 4.75,-1.5 3.7188,7.75 -4.2188,6.4688 -5.75,-3 -14.469,-36.125 -2.9688,1.25 9.7188,23.656 0.25,9.75 3.9688,8.4688 1.75,-0.75 -3.7188,-7.9688 1.25,-2.5 6.2188,10.969 -6.9688,6.9688 -7,-21.938 -2.75,0.5 0.5,7.7188 8,14.719 -5.75,4.75 -6.7188,-21.938 -2.75,0.25 0.25,6.7188 7.2188,17.438 -2.2188,2.75 -6.25,-18.688 -2.5,0.25 0,10.219 c 0,0 2.555,3.6361 3.25,5.7188 0.61014,1.8284 0.75,5.75 0.75,5.75 l -3.75,1.5 -1.5,-10.719 -2.7188,0.5 c 0,0 -0.5652,3.9976 -0.25,5.9688 0.33634,2.1034 2.25,6 2.25,6 l -2.25,1.9688 c 0,0 -2.4952,-2.3852 -3,-3.9688 -0.95945,-3.0098 0.25,-9.4688 0.25,-9.4688 l -2.75,0.5 0,5.2188 -2.75,1.25 -0.71875,-6.7188 -2,0 -1.25,7.4688 0.25,8.7188 -3,0 -1.5,-5.9688 -3,0.75 1.25,11.719 -2.7188,1.4688 c 0,0 -0.58381,-5.5263 -1.25,-8.2188 -0.48605,-1.9644 -2,-5.7188 -2,-5.7188 l -2.5,0.25 -0.5,15.938 c 0,0 -2.6388,-2.5486 -3.25,-4.2188 -1.1722,-3.2035 -0.5,-10.219 -0.5,-10.219 l -2.4688,0.5 c 0,0 -1.1078,7.8101 0,11.469 0.34731,1.1471 2,2.9688 2,2.9688 l -0.75,3.25 c 0,0 -2.3555,-0.98949 -3,-2 -1.1755,-1.8432 -1,-6.4688 -1,-6.4688 l -4,0.75 -0.25,5.9688 c 0,0 2.91,2.7434 3.75,4.5 0.54843,1.1468 0.75,3.7188 0.75,3.7188 l -2.5,1.5 c 0,0 -0.25021,-2.5499 -0.75,-3.7188 -0.79763,-1.8654 -3.4688,-5 -3.4688,-5 l -4.25,0.25 c 0,0 1.1761,4.1069 1.5,6.2188 0.36205,2.3604 0.49699,7.1566 0.5,7.2654 9.7622,-5.5373 19.44,-11.232 28.833,-17.293 15.838,-10.22 31.766,-20.875 45.197,-34.099 18.127,-17.847 32.069,-39.876 46.876,-60.56 1.6647,-2.3254 3.8049,-4.5144 5.6875,-6.8125 z m -123.16,102.22 -2.75,0.46875 c 0,0 -0.56693,3.9247 0,5.75 0.4786,1.5409 2.205,2.4813 2.75,4 1.2959,3.6117 1,11.469 1,11.469 l -2.5,0.5 -1.25,-12.969 -1.9688,0.75 1,12.719 -2.25,0 -0.5,-11.469 -4.25,0.46875 0,9.25 -2.25,0.5 -0.75,-11.469 -2.9688,-0.25 c 0,0 -0.24566,4.9878 0,7.4688 0.33403,3.3734 2,9.9688 2,9.9688 l -2.75,0.25 c 0,0 -0.79279,-4.8163 -1.25,-7.2188 -0.38089,-2.0014 -1.25,-6 -1.25,-6 l -3,0 0.75,10.969 -2,-4.7188 -1.7188,0.75 c 0,0 -0.5569,5.1596 -0.25,7.7188 0.18485,1.5414 1.2188,4.5 1.2188,4.5 l -2.7188,0.96875 -1.25,-1.7188 c 0,0 -0.37069,-3.1735 -0.25,-4.75 0.15551,-2.0313 1.25,-5.9688 1.25,-5.9688 l -2.75,-0.25 -1.75,3.2188 c 0,0 -1.1896,3.9869 -1,6 0.15781,1.6753 1.75,4.7188 1.75,4.7188 l -2.6095,1.7654 c 2.2398,-0.69298 4.4055,-1.4897 6.6095,-2.2654 11.655,-4.1019 22.771,-9.4933 33.562,-15.61 l -2.9062,-0.0779 c 0,0 0.54962,-3.6946 0.25,-5.5 -0.40928,-2.4663 -2.1976,-4.5306 -2.75,-6.9688 -0.51552,-2.2751 -0.5,-6.9688 -0.5,-6.9688 z m -51.84,20.68 c 0,0 0.0361,5.3168 0.25,7.9688 0.30989,3.8426 1.5,11.469 1.5,11.469 l -4,0.25 0.25,-7.4688 -3,0.25 0.5,-6 -3.4688,-0.25 c 0,0 -1.0026,2.4595 -1.25,3.75 -0.54852,2.8612 -0.5,8.7188 -0.5,8.7188 l -3.75,-1.25 c 0,0 1.7467,-4.2384 2.25,-6.4688 0.49697,-2.2022 0.75,-6.75 0.75,-6.75 l -3,1.5 c 0,0 -1.0458,3.6447 -2,5.25 -0.78296,1.3172 -2.5971,1.9822 -2.9688,3.4688 -0.37165,1.4866 0.96875,4.5 0.96875,4.5 l -3.4688,1.75 c 0,0 -1.84,-5.5749 -2.25,-8.4688 -0.51308,-3.6213 -0.25,-10.969 -0.25,-10.969 l -3.75,0.75 c 0,0 -0.19324,5.5112 0.25,8.2188 0.46293,2.8279 2.5,8.2188 2.5,8.2188 l -3.25,1.75 c 0,0 -2.1206,-5.7139 -2.4688,-8.7188 -0.4022,-3.471 0.5,-10.469 0.5,-10.469 l -4.75,-0.75 c 0,0 -0.52151,7.7238 0.25,11.469 0.75976,3.6879 4.25,10.469 4.25,10.469 l -2.75,1 -5,-9 -4.4688,6 -6,1.25 -2.5,-4 -6.9688,3 -3,-1.5 0.75,-4.5 -3.7188,-1.7188 -5.5,3.7188 -6.9688,-1.5 0.68428,0.88061 c 2.0597,1.1357 4.3525,2.3343 6.52,3.2075 12.296,4.954 26.386,5.7196 39.639,5.4119 15.709,-0.36477 31.543,-3.0533 46.609,-7.7033 -0.0768,-0.1093 -2.1859,-3.2101 -2.4531,-5.0154 -0.43205,-2.9192 1.4688,-8.75 1.4688,-8.75 l -3.4688,-0.25 c 0,0 -3.3311,3.5198 -4,5.75 -0.9553,3.185 0.25,9.9688 0.25,9.9688 l -2,0.25 0,-5.25 c 0,0 -3.1431,-3.1861 -3.9688,-5.2188 -1.0396,-2.5594 -1,-8.2188 -1,-8.2188 z"
         inkscape:connector-curvature="0"
         style="fill:url(#linearGradient4231)"
         sodipodi:nodetypes="cccccccccccccccccccccccccccccccccccccccccccccccccccccccccccccccccccccccccsccccsccscccccccccccccscccsccsccscccsccsccscsssccccssccccccccccccsccscccccscccscccsccsccsscccccccccsccsccssccsccsccsccscccccccccccccsscsccscccscc"
         id="arm white" />
      <path
         d="m 287.94,726.81 -1.2188,7.7188 -2.25,3.5 -1,-3.5 -2.5,0.25 -1.5,5 -4.2188,-1 c 0,0 -0.47122,3.3028 0.71875,3.75 2.8032,1.0534 6.1844,1.0629 9.25,0.71875 2.1986,-0.24684 5.7513,-1.5374 7.5625,-2.25 -0.92185,-1.8048 -4.0148,-8.0763 -4.3438,-11.938 -0.0329,-0.38603 -0.0637,-0.86687 -0.0937,-1.2812 l -0.40625,-0.96875 z"
         inkscape:connector-curvature="0"
         style="fill:#ffffff;stroke:#000000;stroke-width:1px;stroke-opacity:0.1"
         id="inner elbow" />
    </g>
    <g
       id="creature">
      <path
         d="m 923.18,268.33 24.931,-11.967 c 0,0 2.8527,4.483 2.7424,6.9806 -0.0798,1.8058 -2.4201,4.8526 -2.4201,4.8526 l 3.4903,-0.6749 c 0,0 1.3663,6.1095 0.17629,8.7862 -0.67009,1.5073 -3.7396,3.241 -3.7396,3.241 l 3.9889,-0.38282 c 0,0 0.66689,5.5089 -0.49861,7.862 -0.95027,1.9186 -4.8526,4.208 -4.8526,4.208 l 3.3568,0.89396 c 0,0 -1.2295,5.0969 -2.9917,6.8648 -1.3193,1.3235 -5.1322,2.2563 -5.1322,2.2563 l 4.3415,1.0702 c 0,0 -1.5185,4.9983 -3.1982,6.895 -1.9722,2.2271 -7.5825,4.7066 -7.5825,4.7066 l 3.6968,0.89396 c 0,0 -2.6523,4.6092 -4.5908,6.3662 -1.772,1.6061 -6.2024,3.6061 -6.2024,3.6061 l 5.0894,0.46837 c 0,0 -2.9162,4.2602 -4.8703,5.8978 -1.6828,1.4102 -5.7341,3.241 -5.7341,3.241 l 3.8001,1.3623 c 0,0 -3.5145,4.1017 -5.5452,5.8676 -1.7057,1.4833 -5.5275,3.9284 -5.5275,3.9284 l 4.2382,0.74792 c 0,0 -1.3627,3.8018 -0.70515,5.5452 0.66488,1.7628 2.3542,3.7558 4.2382,3.7396 4.5833,-0.0395 11.38,-0.0193 18.199,-1.2465 2.0852,-0.37525 4.9135,-1.0076 5.2354,-2.9917 0.33938,-2.0913 -2.1978,-5.3075 -4.2382,-4.7368 -3.5902,1.0041 -6.5088,1.265 -9.8085,1.4656 -2.7098,0.16472 -5.7545,0.2291 -8.1416,-0.21907 -0.89843,-0.16868 -0.50177,-1.9783 0,-2.7424 9.1198,-13.888 17.597,-26.568 24.299,-40.959 2.5833,-5.5474 5.6409,-10.853 6.0564,-17.331 0.53791,-8.3862 1.1144,-17.249 -1.38,-24.674 -1.65,-4.9113 -4.6461,-9.5718 -4.6461,-9.5718 l -23.259,10.574 z"
         inkscape:connector-curvature="0"
         style="fill:#000000"
         sodipodi:nodetypes="ccaccaccaccaccaccaccaccaccassasassassccc"
         id="right leg 1" />
      <path
         d="m 943.49,190.04 c 0,0 11.984,-9.5616 18.158,-14.103 14.995,-11.031 29.626,-22.752 45.835,-31.908 10.031,-5.6667 20.459,-11.004 31.555,-14.103 3.1941,-0.89199 9.872,-1.234 9.872,-1.234 0,0 0.1423,6.1274 -0.1762,9.1669 -0.6175,5.8914 -1.7694,11.743 -3.3495,17.452 -2.4199,8.7432 -5.5929,17.301 -9.3432,25.562 -8.2299,18.127 -18.851,35.076 -28.735,52.357 -7.6402,13.358 -23.622,39.665 -23.622,39.665 0,0 2.3324,1.6849 3.702,1.9392 4.0132,0.74498 8.0936,-0.83639 12.164,-1.4103 1.3268,-0.18709 3.1609,-0.0741 3.8783,1.0577 0.5431,0.85679 0.4429,2.706 -0.5289,2.9969 -3.5085,1.0501 -6.6025,2.32 -10.048,2.468 -3.8029,0.16334 -7.6228,-0.71585 -11.282,-1.7629 -2.8857,-0.82561 -8.2855,-3.5257 -8.2855,-3.5257 0,0 3.4852,-1.7319 4.936,-2.9969 0.91309,-0.79611 2.2917,-2.8206 2.2917,-2.8206 l -3.702,-0.88144 c 0,0 3.8612,-0.57362 5.4649,-1.5866 1.7947,-1.1336 4.2309,-4.7597 4.2309,-4.7597 l -5.6412,-0.70515 c 0,0 3.7194,-0.76763 5.2886,-1.7629 1.5092,-0.95719 3.702,-3.8783 3.702,-3.8783 l -3.702,-0.88144 c 0,0 3.3695,-1.211 4.7597,-2.2917 1.877,-1.4592 4.5835,-5.4649 4.5835,-5.4649 l -3.3494,-1.4103 c 0,0 3.8256,-1.4578 5.4649,-2.6443 1.9862,-1.4376 5.1123,-5.2886 5.1123,-5.2886 l -5.2886,-0.70515 c 0,0 3.3787,-0.92544 4.7598,-1.9392 1.7832,-1.3088 4.2308,-5.1123 4.2308,-5.1123 l -5.8174,-0.88144 c 0,0 3.6242,-1.1634 5.1123,-2.2917 1.8286,-1.3864 4.4072,-5.2886 4.4072,-5.2886 l -3.5258,-2.2917 c 0,0 3.2596,-0.36754 4.5835,-1.234 1.889,-1.2363 4.2309,-5.2886 4.2309,-5.2886 l -3.1732,-2.468 c 0,0 3.4034,-1.0316 4.7597,-2.1154 3.1491,-2.5166 7.2278,-9.6958 7.2278,-9.6958 l -5.8175,0 c 0,0 3.9053,-1.8892 5.4649,-3.3494 2.1542,-2.017 5.1123,-7.2278 5.1123,-7.2278 l -4.2308,-0.70515 c 0,0 3.5736,-1.7582 5.1123,-2.9969 1.6196,-1.3038 4.2309,-4.5835 4.2309,-4.5835 l -4.4072,-0.35257 c 0,0 2.8616,-1.6859 4.0546,-2.8206 1.1838,-1.126 2.9969,-3.8783 2.9969,-3.8783 l -5.4649,-0.52886 c 0,0 3.0404,-1.2169 4.2309,-2.2917 1.1613,-1.0486 2.6443,-3.8783 2.6443,-3.8783 l -4.5835,-0.70515 c 0,0 2.6706,-1.0028 3.702,-1.9392 1.3516,-1.227 2.9969,-4.5834 2.9969,-4.5834 l -4.936,-0.70515 c 0,0 3.3319,-1.668 4.5834,-2.9969 1.6241,-1.7244 3.5258,-6.17 3.5258,-6.17 l -2.1155,-3.5257 c 0,0 2.6378,-1.94 3.3495,-3.3494 1.4197,-2.8116 1.4102,-9.3432 1.4102,-9.3432 0,0 -4.6707,0.90386 -6.8751,1.7629 -10.313,4.0186 -19.87,9.8364 -29.264,15.69 -11.294,7.037 -22.049,14.953 -32.437,23.27 -9.0323,7.2312 -17.452,15.203 -25.914,23.094 -2.4617,2.2955 -7.2278,7.0515 -7.2278,7.0515 z"
         inkscape:connector-curvature="0"
         style="fill:#000000"
         sodipodi:nodetypes="caaacaaaacasasaacaccaccaccaccaccaccaccaccaccaccaccaccaccaccaccacaaaacc"
         id="right leg 2" />
      <path
         d="m 924.68,145.68 6.482,5.4848 c 0,0 9.0731,-14.25 14.211,-20.942 13.921,-18.131 28.637,-35.767 44.875,-51.856 5.654,-5.6019 18.199,-15.457 18.199,-15.457 0,0 1.0092,3.2335 0.4986,4.7368 -0.7373,2.1707 -4.7369,4.9861 -4.7369,4.9861 l 4.4876,-0.24931 c 0,0 0.6437,4.355 -0.2493,6.2327 -0.8091,1.7015 -4.2383,3.7396 -4.2383,3.7396 l 3.9889,0.74792 c 0,0 -0.4132,3.3328 -1.2465,4.7368 -1.0501,1.7693 -4.4875,4.2382 -4.4875,4.2382 l 4.7368,0.74792 c 0,0 -0.2491,2.9946 -0.9972,4.2382 -0.9107,1.514 -3.9889,3.4903 -3.9889,3.4903 l 3.7396,0.99723 c 0,0 -0.3093,4.0173 -1.2466,5.7341 -1.239,2.2694 -5.4847,5.4848 -5.4847,5.4848 l 4.2382,0.74792 c 0,0 -0.7347,4.0105 -1.7451,5.7341 -1.4564,2.4845 -5.9834,6.2327 -5.9834,6.2327 l 4.2382,0.49861 c 0,0 -0.93362,4.6081 -2.2438,6.482 -1.6584,2.372 -6.7313,5.4848 -6.7313,5.4848 l 5.2354,0.74792 c 0,0 -0.43376,5.8762 -1.9945,8.2271 -1.3146,1.9802 -5.7341,4.2382 -5.7341,4.2382 l 3.7396,1.2465 -3.241,9.2244 -6.2327,2.9917 4.4875,1.4958 c 0,0 -1.603,4.0153 -3.095,5.4973 -2.0617,2.0479 -7.6253,4.2257 -7.6253,4.2257 l 5.7341,1.4958 c 0,0 -1.026,5.2522 -2.5233,7.376 -1.339,1.8992 -5.4545,4.3415 -5.4545,4.3415 l 4.7368,1.2465 c 0,0 -1.3646,3.8203 -2.5233,5.4545 -1.7336,2.445 -6.4517,6.2629 -6.4517,6.2629 l 6.3359,-1.0577 c 0,0 -1.4414,5.5371 -3.095,7.789 -2.0279,2.7618 -7.9778,6.482 -7.9778,6.482 l 5.4848,0.74792 c 0,0 -1.3563,3.7069 -2.5536,5.2354 -1.5192,1.9395 -5.6736,4.7368 -5.6736,4.7368 l 5.1624,-0.13351 c 0,0 -1.8614,3.761 -3.168,5.3815 -1.7457,2.1651 -6.1294,5.661 -6.1294,5.661 l 4.135,1.307 c 0,0 -0.50463,2.5025 -1.2465,3.4903 -1.1081,1.4754 -4.4875,3.241 -4.4875,3.241 0,0 5.1647,-0.51479 7.7285,-0.24931 3.1476,0.32593 6.117,1.6453 9.2244,2.2438 2.3081,0.4445 4.8538,1.0748 6.9806,0.99723 1.3696,-0.0499 1.4708,-2.7028 0.99723,-3.9889 -0.49399,-1.3417 -2.0245,-2.379 -3.4903,-2.4931 -4.7616,-0.37065 -12.216,0 -12.216,0 0,0 17.639,-48.971 25.429,-73.795 6.9316,-22.088 14.80097,-44.039 18.94697,-66.814 1.7775,-9.7636 2.7458,-19.747 2.4931,-29.668 -0.126,-4.9463 -1.9945,-14.709 -1.9945,-14.709 0,0 -13.61697,8.3354 -19.69497,13.463 -10.961,9.2456 -20.356,20.227 -29.917,30.914 -8.6977,9.7222 -16.711,20.036 -24.931,30.166 -3.9498,4.8677 -11.717,14.709 -11.717,14.709 z"
         inkscape:connector-curvature="0"
         style="fill:#000000"
         sodipodi:nodetypes="ccaacaccaccaccaccaccaccaccacccccaccaccaccaccaccaccacaasascaaacaaac"
         id="right leg 3" />
      <path
         d="m 891.52,130.97 c 0,0 0.52277,-17.801 2.4931,-26.427 3.5131,-15.38 8.5564,-30.72 16.454,-44.377 4.4904,-7.7648 17.202,-20.692 17.202,-20.692 0,0 10.135,12.588 13.213,19.945 5.6057,13.396 7.26,28.211 8.9751,42.632 2.0128,16.924 1.4958,51.108 1.4958,51.108 l 11.219,-0.2493"
         inkscape:connector-curvature="0"
         style="fill:none;stroke:#000000;stroke-width:4;stroke-linecap:round;stroke-linejoin:round"
         sodipodi:nodetypes="caacaacc"
         id="right leg 4" />
      <path
         d="m 835.95,262.14 c 0,0 -8.3899,-2.199 -12.516,-3.5257 -4.1055,-1.3201 -12.164,-4.4072 -12.164,-4.4072 0,0 -1.9026,4.1888 -1.5866,6.3463 0.31689,2.1638 3.3494,5.6412 3.3494,5.6412 l -4.0546,0 c 0,0 0.40243,5.3981 1.5866,7.7566 0.98971,1.9712 4.4072,4.936 4.4072,4.936 l -4.2309,0.52886 c 0,0 0.59826,2.8764 1.4103,4.0546 1.0887,1.5797 4.4072,3.702 4.4072,3.702 l -5.82,0.53 c 0,0 1.0303,4.3983 2.1154,6.3463 1.3401,2.4056 5.2886,6.3463 5.2886,6.3463 l -4.0546,-0.17629 c 0,0 1.609,5.3284 3.3494,7.404 1.7384,2.0732 6.6989,4.5835 6.6989,4.5835 l -4.2309,1.9392 c 0,0 1.7308,3.1609 2.9969,4.4072 1.7539,1.7264 6.17,4.0546 6.17,4.0546 l -3.702,2.1154 c 0,0 3.0095,3.6881 4.7597,5.2886 1.5178,1.3879 4.936,3.702 4.936,3.702 l -5.2886,0.88143 c 0,0 3.9422,4.0549 5.8175,6.17 1.5224,1.717 4.1727,3.9123 4.4072,5.2886 0.23817,1.3978 -0.1722,4.6127 -2.468,7.0515 -2.0683,2.1972 -5.9821,0.82435 -8.9906,1.0577 -3.1073,0.24102 -5.8187,0.13314 -9.3432,0.35257 -0.97611,0.0608 -1.5866,-2.468 -1.5866,-2.468 l -6.3463,0 c 0,0 4.028,-2.9126 6.3463,-3.702 1.7387,-0.59205 3.6393,-0.90718 5.4649,-0.70514 1.3672,0.15131 2.5288,1.1435 3.8783,1.4103 1.3847,0.27379 2.9555,0.78112 4.2309,0.17629 1.3274,-0.62948 3.6014,-2.4113 2.6443,-3.5257 -7.204,-8.3883 -12.362,-16.733 -16.747,-26.09 -4.4718,-9.5416 -7.6609,-19.773 -9.5195,-30.145 -1.7018,-9.4972 -1.7013,-20.041 -1.4103,-28.911 0.20314,-6.1925 3.5257,-11.282 3.5257,-11.282 0,0 6.8296,1.9539 10.225,2.9969 3.3041,1.015 6.5585,2.1893 9.872,3.1732 1.9268,0.57211 5.8175,1.5866 5.8175,1.5866 z"
         inkscape:connector-curvature="0"
         style="fill:#000000"
         sodipodi:nodetypes="cacaccaccaccaccaccaccaccassasccaaaasaascaacc"
         id="left leg 1" />
      <path
         d="m 824.96,196.78 c 0,0 -17.211,-16.505 -27.424,-22.438 -14.626,-8.4966 -30.747,-15.063 -47.368,-18.199 -13.229,-2.4962 -40.388,-0.24931 -40.388,-0.24931 0,0 0.10433,3.5943 0.74792,5.2354 0.95941,2.4465 4.4875,6.482 4.4875,6.482 l -3.4903,0.74792 c 0,0 0.44292,4.1113 1.2465,5.9834 1.0366,2.4148 4.4875,6.482 4.4875,6.482 0,0 -1.7016,1.1121 -1.7452,1.9945 -0.10567,2.142 3.7396,5.2354 3.7396,5.2354 l 5.7341,4.2382 -4.9861,0.49862 c 0,0 1.2908,4.1881 2.4931,5.9834 1.3733,2.0506 5.2354,5.2354 5.2354,5.2354 l -2.9917,1.9944 c 0,0 2.5681,4.043 4.2382,5.7341 2.1256,2.1523 7.2299,5.4848 7.2299,5.4848 l -5.2354,1.7452 c 0,0 1.9794,2.5264 3.241,3.4903 1.5654,1.1961 5.2354,2.7424 5.2354,2.7424 l -2.9917,2.4931 c 0,0 2.5192,2.6618 3.9889,3.7396 1.2302,0.90219 3.9889,2.2438 3.9889,2.2438 l -4.2382,1.9944 c 0,0 2.7813,3.237 4.4875,4.4875 1.8887,1.3842 6.2327,3.241 6.2327,3.241 l -4.9862,1.4958 c 0,0 3.0584,3.1042 4.7368,4.4875 2.2066,1.8187 6.9806,4.9861 6.9806,4.9861 l -3.9889,1.9945 c 0,0 3.6184,3.1552 5.7341,4.2382 1.9417,0.99393 6.2327,1.9944 6.2327,1.9944 l -6.7313,1.2465 c 0,0 1.8354,2.639 2.9917,3.7396 1.3365,1.2722 4.4875,3.241 4.4875,3.241 l -4.9861,0.49861 1.4958,3.241 c 0,0 -8.7246,2.5948 -13.213,3.241 -5.4344,0.78234 -16.454,0.74792 -16.454,0.74792 l -1.2465,-1.4958 2.7424,-1.2465 -2.7424,-1.7452 1.2465,-1.4958 c 0,0 9.653,0.11566 14.46,-0.24931 3.0938,-0.2349 9.2244,-1.2465 9.2244,-1.2465 0,0 -4.6622,-5.86 -6.7313,-8.9751 -9.7469,-14.674 -19.128,-29.706 -26.676,-45.623 -5.5094,-11.618 -10.251,-23.699 -13.463,-36.15 -2.2458,-8.7058 -3.9889,-26.676 -3.9889,-26.676 0,0 14.706,-3.2112 22.188,-3.4903 12.248,-0.4569 24.721,0.1669 36.648,2.9917 9.5054,2.2513 18.575,6.3359 27.174,10.97 12.095,6.517 33.906,23.435 33.906,23.435 z"
         inkscape:connector-curvature="0"
         style="fill:#000000"
         sodipodi:nodetypes="caacaccacacccaccaccaccaccaccaccaccacccacccccacaaacaaacc"
         id="left leg 2" />
      <path
         d="m 851.88,141.94 c 0,0 -10.255,-17.596 -16.953,-25.18 C 823.62,103.956 810.662,92.327 796.284,83.104 786.767,76.999 776.423,71.523 765.37,69.143 c -1.7873,-0.38487 -5.4848,0 -5.4848,0 0,0 -3.3791,16.034 -3.7396,24.183 -0.62205,14.06 0.6682,28.213 2.7424,42.133 2.7301,18.322 7.1541,36.429 12.715,54.1 5.7994,18.43 21.44,53.85 21.44,53.85 0,0 -5.4899,0.16745 -8.2271,0 -4.7635,-0.2914 -14.211,-1.7452 -14.211,-1.7452 0,0 1.8969,1.9736 2.2438,3.241 0.30787,1.125 -0.2493,3.4903 -0.2493,3.4903 0,0 2.571,1.5732 3.9889,1.4958 7.6462,-0.41687 12.997,0.19897 20.194,-0.74792 1.7381,-0.22867 4.4875,-2.7424 4.4875,-2.7424 0,0 -4.0902,-0.44474 -4.9862,-1.9945 -0.58823,-1.0174 0.49862,-3.4903 0.49862,-3.4903 l 5.2354,0.24931 c 0,0 -3.4914,-2.6495 -4.9861,-4.2382 -1.7083,-1.8158 -4.4875,-5.9834 -4.4875,-5.9834 l 3.9889,0 c 0,0 -4.0612,-3.9587 -5.7341,-6.2327 -1.0812,-1.4696 -2.7424,-4.7368 -2.7424,-4.7368 l 2.9917,-0.99722 c 0,0 -3.3768,-3.1407 -4.7368,-4.9862 -1.4127,-1.9168 -3.4903,-6.2327 -3.4903,-6.2327 l 3.9889,-0.74792 c 0,0 -4.1485,-4.4206 -5.7341,-6.9806 -1.3906,-2.2452 -3.241,-7.2299 -3.241,-7.2299 l 3.4903,-1.4958 c 0,0 -3.8222,-3.9165 -5.2354,-6.2327 -1.4551,-2.3847 -3.241,-7.7285 -3.241,-7.7285 l 5.4848,0 c 0,0 -5.1438,-4.7828 -6.9806,-7.7285 -1.4207,-2.2785 -2.9917,-7.4792 -2.9917,-7.4792 l 4.2382,-0.74792 c 0,0 -3.5407,-4.4357 -4.7368,-6.9806 -1.1411,-2.4278 -2.2438,-7.7285 -2.2438,-7.7285 l 4.7368,0.2493 c 0,0 -3.1041,-4.677 -4.2382,-7.2299 -1.3444,-3.0264 -2.9917,-9.4737 -2.9917,-9.4737 l 3.9889,-0.74793 c 0,0 -3.1703,-4.4766 -4.2382,-6.9806 -1.0122,-2.3734 -1.9945,-7.4792 -1.9945,-7.4792 l 3.241,-0.24931 c 0,0 -2.5883,-4.4996 -3.241,-6.9806 -1.0605,-4.0312 -0.99723,-12.465 -0.99723,-12.465 l 3.9889,0 c 0,0 -1.813,-1.9996 -2.2438,-3.241 -0.43672,-1.2586 -0.2493,-3.9889 -0.2493,-3.9889 l 3.7396,-0.24931 c 0,0 -2.0329,-4.8919 -2.4931,-7.4792 -0.48045,-2.7012 -0.24931,-8.2271 -0.24931,-8.2271 0,0 2.3574,-0.26486 3.4903,0 8.3958,1.9629 15.923,6.8213 23.186,11.468 10.255,6.5609 19.806,14.335 28.421,22.936 7.9444,7.9323 15.046,16.782 21.191,26.177 2.8684,4.386 7.2299,13.961 7.2299,13.961 z"
         inkscape:connector-curvature="0"
         style="fill:#000000"
         sodipodi:nodetypes="caaacaaacacacsscaccaccaccaccaccaccaccaccaccaccaccaccacaaaacc"
         id="left leg 3" />
      <path
         d="m 877.31,129.22 c 0,0 -1.4711,-20.505 -3.9889,-30.415 -3.7,-14.583 -8.73,-29.069 -16.2,-42.132 -4.11,-7.188 -15.46,-19.446 -15.46,-19.446 0,0 -10.745,18.632 -14.46,28.67 -4.4564,12.041 -7.5483,24.667 -9.2244,37.396 -2.1701,16.482 -0.99722,49.861 -0.99722,49.861 l -11.468,-0.2493"
         inkscape:connector-curvature="0"
         style="fill:none;stroke:#000000;stroke-width:4;stroke-linecap:round;stroke-linejoin:round"
         sodipodi:nodetypes="caacaacc"
         id="left leg 4" />
      <path
         d="M 885.04,127.97 887.03,-0.17"
         inkscape:connector-curvature="0"
         style="fill:none;stroke:#000000;stroke-width:1.5"
         id="silk" />
      <path
         inkscape:connector-curvature="0"
         style="fill:#000000"
         sodipodi:nodetypes="aaaaaaaaaa"
         d="m 824.96,233.93 c -3.8255,-18.133 -6.2506,-38.062 -0.24931,-55.595 6.2879,-18.37 18.584,-37.088 35.9,-45.873 13.792,-6.997 32.165,-7.6084 46.371,-1.4958 16.33,7.0267 29.164,23.241 35.402,39.889 6.5311,17.432 3.9343,37.765 -0.49862,55.845 -4.2658,17.399 -10.99,36.025 -24.432,47.867 -9.941,8.7578 -24.155,13.896 -37.396,13.463 -14.134,-0.46313 -28.891,-6.9544 -38.892,-16.953 -9.5538,-9.5511 -13.416,-23.929 -16.205,-37.147 z"
         id="body" />
      <g
         id="left eye">
        <path
           d="m 852.63,242.16 c 6.291,-0.12577 13.428,4.6055 15.706,10.471 2.386,6.1438 0.008,14.622 -4.7368,19.197 -4.3999,4.2421 -12.126,5.5937 -17.95,3.7396 -8.4979,-2.7055 -12.883,-12.676 -11.219,-20.194 1.6203,-7.3195 10.704,-13.063 18.199,-13.213 z"
           inkscape:connector-curvature="0"
           style="fill:#ffffff"
           sodipodi:nodetypes="aaasaa"
           id="left sclera" />
        <path
           d="m 842.91,257.61 c 2.7064,-2.547 8.3984,-4.678 10.97,-1.9945 3.1242,3.2608 0.27526,10.096 -2.9917,13.213 -2.7478,2.6223 -8.6212,4.7656 -11.219,1.9945 -3.1015,-3.3086 -0.0615,-10.105 3.241,-13.213 z"
           inkscape:connector-curvature="0"
           style="fill:#000000"
           sodipodi:nodetypes="aaaaa"
           id="left pupil" />
      </g>
      <g
         id="right eye">
        <path
           d="m 906.98,246.89 c 5.0159,-0.1162 10.295,2.8403 13.463,6.7313 2.6596,3.2672 3.8311,8.0447 3.241,12.216 -0.6109,4.3181 -3.1407,8.7436 -6.7313,11.219 -3.8922,2.6831 -9.6962,4.5322 -13.961,2.4931 -4.7637,-2.2776 -8.4937,-4.0606 -10.471,-7.9778 -2.4717,-4.897 -2.9884,-11.702 -0.2493,-16.454 2.8052,-4.8674 9.0928,-8.097 14.709,-8.2271 z"
           inkscape:connector-curvature="0"
           style="fill:#ffffff"
           sodipodi:nodetypes="aaaasaaa"
           id="right sclera" />
        <path
           inkscape:connector-curvature="0"
           style="fill:#000000"
           sodipodi:nodetypes="aaaaa"
           d="m 904.74,259.36 c 3.3125,-2.2379 8.9825,0.92471 11.219,4.2382 2.0925,3.1005 2.8093,9.0655 -0.2493,11.219 -3.2232,2.2692 -8.9481,-0.51744 -11.219,-3.7396 -2.2504,-3.1934 -2.9878,-9.5304 0.24931,-11.717 z"
           id="right pupil" />
      </g>
    </g>
  </g>
  <metadata
     id="metadata19936">
    <rdf:RDF>
      <cc:Work>
        <dc:format>image/svg+xml</dc:format>
        <dc:type
           rdf:resource="http://purl.org/dc/dcmitype/StillImage" />
        <cc:license
           rdf:resource="http://creativecommons.org/publicdomain/zero/1.0/" />
        <dc:publisher>
          <cc:Agent
             rdf:about="http://openclipart.org/">
            <dc:title>Openclipart</dc:title>
          </cc:Agent>
        </dc:publisher>
        <dc:title>Little Miss Muffet Poster</dc:title>
        <dc:date>2011-06-28T01:37:56</dc:date>
        <dc:description>Poster promoting reading among children. &quot;Little Miss Muffet / Sat on a tuffet / Reading a picture book / There came a spider / And sat down beside her / And said, 'May I have a look?'&quot;\n\nSource: http://en.wikipedia.org/wiki/File:Little_Miss_Muffet_1940_poster.jpg (public domain)\n\n(Fonts converted to paths)</dc:description>
        <dc:source>https://openclipart.org/detail/147523/little-miss-muffet-poster-by-serioustux-147523</dc:source>
        <dc:creator>
          <cc:Agent>
            <dc:title>SeriousTux</dc:title>
          </cc:Agent>
        </dc:creator>
        <dc:subject>
          <rdf:Bag>
            <rdf:li>Miss Muffet</rdf:li>
            <rdf:li>book</rdf:li>
            <rdf:li>poster</rdf:li>
            <rdf:li>spider</rdf:li>
            <rdf:li>tuffet</rdf:li>
          </rdf:Bag>
        </dc:subject>
      </cc:Work>
      <cc:License
         rdf:about="http://creativecommons.org/publicdomain/zero/1.0/">
        <cc:permits
           rdf:resource="http://creativecommons.org/ns#Reproduction" />
        <cc:permits
           rdf:resource="http://creativecommons.org/ns#Distribution" />
        <cc:permits
           rdf:resource="http://creativecommons.org/ns#DerivativeWorks" />
      </cc:License>
    </rdf:RDF>
  </metadata>
</svg>
